<svg width="24" height="24" viewBox="0 0 24 24" fill="none" xmlns="http://www.w3.org/2000/svg">
<g clip-path="url(#clip0_1014_1119)">
<path fill-rule="evenodd" clip-rule="evenodd" d="M4 9V7.026H6V9H11V5H13V9H18V7H20V9H20.755C22.558 9.091 23.998 10.646 23.998 12.519C23.998 13.48 23.616 14.348 23 14.977V24H1V14.98C0.57 14.542 0.253 13.987 0.1 13.359C0.033 13.083 0 12.801 0 12.518C0 10.509 1.629 9.039 3.242 9H4ZM21 20H3V22H21V20ZM3 15.973V18H21V15.973L20.593 15.998C19.818 15.998 19.052 15.728 18.439 15.208C17.863 15.696 17.106 15.997 16.284 15.997C15.472 15.997 14.718 15.702 14.142 15.218C13.561 15.705 12.801 15.998 12.006 15.998C11.199 15.998 10.431 15.706 9.857 15.218C9.271 15.709 8.511 15.998 7.72 15.998C6.945 15.998 6.194 15.738 5.56 15.208C4.999 15.687 4.232 15.998 3.406 15.998L3 15.973ZM3.29 11C2.663 11.049 2.047 11.635 2.002 12.421C1.951 13.308 2.634 14.006 3.456 13.997C4.632 13.983 5.371 13.137 5.573 12C5.79 12.88 6.559 13.975 7.718 13.996C8.874 14.017 9.708 13.037 9.879 12.038L9.887 12C10.086 13.04 10.877 13.996 11.996 13.996C13.151 13.996 13.913 13.124 14.168 12C14.416 13.138 15.203 13.994 16.285 13.997C17.393 14 18.24 13.069 18.488 12C18.676 12.828 19.292 13.985 20.539 13.998C21.298 14.006 21.999 13.348 21.999 12.515C21.999 11.678 21.35 11.034 20.681 10.998L3.29 11ZM4.153 6.549C2.256 5.928 2.802 3.105 5.043 2.026C5.123 3.448 7 3.592 7 5.028C7 5.63 6.559 6.302 5.916 6.549C6.07 6.04 5.73 5.133 5.036 4.74C4.334 5.147 3.973 6.042 4.153 6.549ZM18.152 6.523C16.256 5.902 16.802 3.079 19.043 2C19.123 3.422 21 3.566 21 5.002C21 5.604 20.559 6.276 19.916 6.523C20.069 6.014 19.73 5.107 19.036 4.714C18.334 5.121 17.973 6.016 18.152 6.523ZM11.153 4.523C9.256 3.902 9.802 1.079 12.043 0C12.123 1.422 14 1.566 14 3.002C14 3.604 13.559 4.276 12.916 4.523C13.069 4.014 12.73 3.107 12.036 2.714C11.334 3.121 10.973 4.016 11.153 4.523Z" fill="#636363"/>
</g>
<defs>
<clipPath id="clip0_1014_1119">
<rect width="24" height="24" fill="white"/>
</clipPath>
</defs>
</svg>