<svg width="24" height="24" viewBox="0 0 24 24" fill="none" xmlns="http://www.w3.org/2000/svg">
<g clip-path="url(#clip0_1014_1115)">
<path d="M24 2.282V11.932C24 11.932 22.713 13.121 20.856 13.121C17.983 13.121 17.53 10.711 14.307 10.711C13.229 10.711 11.854 11.312 10.999 12V20H9V0H11V1.84C11.866 1.393 13.049 1 14.296 1C17.709 1 17.775 3.533 20.715 3.533C22.582 3.533 24 2.282 24 2.282ZM22 5.401C19.659 5.88 18.065 5.106 16.54 3.912C14.551 2.354 12.354 3.071 11 4.238V9.624C12.01 9.106 13.19 8.711 14.308 8.711C16.588 8.711 17.938 9.642 18.924 10.321C19.924 11.011 20.721 11.441 22 10.852V5.401ZM20 17H13V19H18.84L20.554 22H3.446L5.16 19H7V17H4L0 24H24L20 17Z" fill="#636363"/>
</g>
<defs>
<clipPath id="clip0_1014_1115">
<rect width="24" height="24" fill="white"/>
</clipPath>
</defs>
</svg>