<svg width="537" height="533" viewBox="0 0 537 533" fill="none" xmlns="http://www.w3.org/2000/svg">
<path d="M468.676 455.563L508.143 512.953L522.255 513.288L496.39 454.271L468.676 455.563Z" fill="#263238"/>
<path d="M52.2089 458.481L31.415 512.698H41.812L78.1215 458.72L52.2089 458.481Z" fill="#263238"/>
<path d="M43.2474 261.497L44.842 331.661C44.9436 336.435 46.8842 340.985 50.2592 344.363C53.6342 347.741 58.183 349.686 62.9569 349.792L455.537 358.53C458.007 358.585 460.463 358.146 462.761 357.239C465.059 356.332 467.153 354.975 468.919 353.247C470.686 351.519 472.089 349.456 473.047 347.179C474.004 344.901 474.497 342.455 474.497 339.985V255.47C474.492 243.422 470.131 231.782 462.219 222.697C454.306 213.612 443.375 207.695 431.442 206.036C359.572 196.15 211.384 180.953 91.5485 202.544C77.7935 205.004 65.369 212.294 56.5134 223.103C47.6578 233.911 42.9532 247.527 43.2474 261.497Z" fill="#FFC727"/>
<path d="M41.5245 286.007C41.5245 286.007 9.18556 271.033 2.56788 286.007C-4.0498 300.98 3.38113 319.35 10.6526 329.588C17.9241 339.825 17.8922 466.311 17.8922 466.311L508.366 461.064L514.17 339.442C514.17 339.442 537.691 310.468 536.224 297.982C534.757 285.496 514.904 267.318 492.117 285.959C469.33 304.6 463.413 343.557 463.413 343.557L72.3645 346.507C72.3645 346.507 73.7039 291.795 41.5245 286.007Z" fill="#FFC727"/>
<path d="M458.453 367.859C458.453 368.082 371.563 368.273 264.404 368.273C157.245 368.273 70.3545 368.13 70.3545 367.859C70.3545 367.588 157.214 367.444 264.404 367.444C371.594 367.444 458.453 367.667 458.453 367.859Z" fill="#263238"/>
<path d="M70.3546 421.438C70.334 421.311 70.334 421.182 70.3546 421.055C70.3546 420.752 70.3546 420.37 70.3546 419.923C70.3546 418.924 70.3227 417.473 70.2589 415.57C70.2589 411.727 70.2589 406.289 70.2589 399.624C70.2589 386.133 70.3546 367.492 69.7327 347.001C69.6112 337.353 68.8654 327.722 67.5002 318.17C67.2132 317.118 66.9261 316.065 66.6551 314.981C66.384 313.897 65.8577 312.988 65.4431 312.015C64.598 310.086 63.7369 308.236 62.7961 306.498C61.0974 303.263 59.1008 300.193 56.8322 297.329C54.9379 294.983 52.7997 292.844 50.4537 290.95C48.6717 289.532 46.7542 288.293 44.729 287.251C42.9646 286.437 41.1604 285.714 39.3232 285.082H39.69L40.7903 285.385C42.1976 285.788 43.5643 286.322 44.8725 286.98C46.9554 287.967 48.9232 289.181 50.7407 290.599C53.1363 292.481 55.3181 294.62 57.2468 296.978C59.578 299.847 61.6285 302.934 63.3701 306.195C64.3429 307.949 65.2199 309.799 66.081 311.744C66.5115 312.717 66.9102 313.721 67.3088 314.726L68.2178 317.915C69.6404 327.51 70.4129 337.19 70.53 346.889C71.1519 367.46 70.9446 386.101 70.817 399.592C70.7213 406.273 70.6416 411.711 70.5938 415.538C70.5938 417.372 70.5938 418.823 70.5938 419.891V421.007C70.3546 421.294 70.3546 421.438 70.3546 421.438Z" fill="#263238"/>
<path d="M37.7135 314.231C38.0943 313.972 38.5444 313.833 39.0052 313.833C40.2871 313.735 41.5626 314.091 42.609 314.837C43.3447 315.352 43.9462 316.036 44.3631 316.831C44.8398 317.764 45.002 318.827 44.8256 319.86C44.6519 321.051 44.1216 322.16 43.3046 323.043C42.4875 323.925 41.4222 324.539 40.249 324.804C39.067 324.973 37.8612 324.79 36.7831 324.276C35.705 323.763 34.8027 322.942 34.1894 321.918C33.6522 321.023 33.3812 319.994 33.4081 318.952C33.4654 317.854 33.8169 316.793 34.4257 315.878C35.0346 314.963 35.8783 314.229 36.8684 313.753C37.275 313.534 37.7298 313.419 38.1919 313.418C38.1919 313.498 37.7295 313.61 37.0119 314.04C36.009 314.661 35.2063 315.558 34.6997 316.623C34.3208 317.371 34.1395 318.203 34.173 319.04C34.2065 319.878 34.4537 320.692 34.8911 321.407C35.4373 322.282 36.2244 322.98 37.1578 323.419C38.0912 323.857 39.1313 324.017 40.1533 323.879C41.1529 323.645 42.0619 323.123 42.7676 322.378C43.4734 321.632 43.945 320.696 44.1239 319.685C44.2645 318.853 44.1687 317.997 43.8473 317.216C43.5259 316.435 42.992 315.76 42.3061 315.268C41.3973 314.544 40.278 314.136 39.1168 314.104C38.1919 314.152 37.7295 314.311 37.7135 314.231Z" fill="#263238"/>
<path d="M39.9293 345.709C38.9995 345.019 38.2411 344.124 37.7127 343.094C36.257 340.696 35.4713 337.952 35.4377 335.147C35.404 332.342 36.1236 329.58 37.5214 327.148C38.0299 326.105 38.7655 325.19 39.6741 324.469C39.7858 324.565 38.9566 325.569 38.0795 327.419C36.8829 329.815 36.2709 332.459 36.2935 335.137C36.3374 337.817 37.0092 340.45 38.2549 342.823C39.1798 344.641 40.0568 345.63 39.9293 345.709Z" fill="#263238"/>
<path d="M34.7948 298.365C34.708 299.175 34.5479 299.976 34.3164 300.757C33.6167 304.573 34.4536 308.511 36.6445 311.712C37.1613 312.339 37.6354 312.999 38.0637 313.689C38.0637 313.689 37.1708 313.243 36.1661 312.095C34.8723 310.515 33.9721 308.65 33.5396 306.654C33.1071 304.658 33.1548 302.588 33.6785 300.613C33.8569 299.783 34.2407 299.01 34.7948 298.365Z" fill="#263238"/>
<path d="M25.2441 316.002C25.4355 315.842 26.9185 317.341 29.1829 318.505C31.4472 319.669 33.5043 320.1 33.4724 320.291C31.8397 320.501 30.1854 320.128 28.8002 319.239C27.2756 318.604 26.0187 317.46 25.2441 316.002Z" fill="#263238"/>
<path d="M510.247 421.438C510.247 421.661 399.628 421.853 263.176 421.853C126.725 421.853 16.1377 421.661 16.1377 421.438C16.1377 421.215 126.741 421.023 263.304 421.023C399.867 421.023 510.247 421.199 510.247 421.438Z" fill="#263238"/>
<path d="M456.749 344.019C456.988 344.019 457.163 361.337 457.163 382.689C457.163 404.041 456.988 421.39 456.749 421.39C456.509 421.39 456.334 404.072 456.334 382.689C456.334 361.305 456.525 344.019 456.749 344.019Z" fill="#263238"/>
<path d="M292.965 210.214H292.2L289.967 210.294L281.404 210.533L249.863 211.267L145.829 213.356C135.672 213.595 125.737 213.563 116.201 214.201C107.019 214.596 97.9344 216.254 89.2045 219.128C81.3292 221.771 74.2819 226.428 68.7614 232.635C66.2572 235.439 64.1144 238.546 62.3829 241.884C60.8038 244.953 59.4965 248.154 58.4761 251.451C56.8371 257.179 55.7689 263.054 55.2869 268.992C54.7925 274.254 54.7447 278.799 54.7128 282.53C54.6809 286.262 54.7128 289.132 54.8244 291.094C54.8244 292.05 54.8244 292.784 54.8244 293.326C54.8244 293.868 54.8244 294.091 54.8244 294.091C54.8244 294.091 54.8244 293.836 54.8244 293.326C54.8244 292.816 54.8244 292.05 54.6969 291.094C54.6012 289.148 54.4736 286.31 54.4417 282.53C54.4098 278.751 54.4417 274.238 54.8723 268.944C55.3417 262.947 56.4101 257.012 58.0615 251.228C59.0711 247.873 60.3731 244.613 61.9524 241.485C63.6688 238.08 65.8123 234.908 68.3309 232.045C73.9263 225.743 81.0729 221.016 89.061 218.331C97.8203 215.407 106.944 213.716 116.17 213.308C125.737 212.67 135.688 212.686 145.845 212.447L249.894 210.597L281.42 210.135L289.999 210.039H292.232L292.965 210.214Z" fill="#263238"/>
<path d="M167.404 264.846C167.404 264.846 166.878 265.101 166.065 265.723C164.915 266.605 164.055 267.81 163.593 269.184C163.221 270.162 163.107 271.22 163.26 272.256C163.414 273.292 163.83 274.271 164.47 275.1C165.191 276.191 166.23 277.034 167.446 277.514C168.662 277.995 169.996 278.091 171.269 277.788C172.541 277.485 173.689 276.799 174.558 275.822C175.427 274.844 175.975 273.624 176.127 272.325C176.321 271.294 176.251 270.231 175.922 269.235C175.592 268.24 175.016 267.344 174.245 266.632C173.211 265.622 171.902 264.939 170.482 264.671C169.477 264.495 168.887 264.559 168.887 264.495C169.397 264.308 169.947 264.258 170.482 264.352C171.782 264.501 173.02 264.991 174.07 265.772C175.12 266.554 175.945 267.598 176.462 268.801C176.931 269.963 177.059 271.236 176.828 272.468C176.622 273.896 175.992 275.228 175.02 276.292C174.047 277.357 172.777 278.104 171.374 278.438C169.971 278.771 168.5 278.676 167.153 278.163C165.805 277.65 164.642 276.744 163.816 275.562C163.059 274.567 162.6 273.379 162.493 272.134C162.421 271.047 162.59 269.958 162.987 268.944C163.531 267.496 164.526 266.261 165.825 265.42C166.291 265.091 166.836 264.893 167.404 264.846Z" fill="#263238"/>
<path d="M160.691 306.163C160.084 304.627 159.677 303.019 159.479 301.379C158.701 297.485 158.789 293.467 159.735 289.611C160.757 285.703 163.21 282.322 166.607 280.139C167.634 279.503 168.761 279.045 169.94 278.783C170.362 278.65 170.808 278.607 171.248 278.656C169.729 279.143 168.274 279.806 166.91 280.633C163.768 282.854 161.51 286.112 160.532 289.834C159.632 293.583 159.47 297.472 160.053 301.283C160.436 304.313 160.819 306.131 160.691 306.163Z" fill="#263238"/>
<path d="M166.496 240.289C165.649 241.413 164.866 242.585 164.152 243.797C162.532 246.781 162.055 250.253 162.809 253.564C163.563 256.874 165.497 259.797 168.25 261.785C169.422 262.576 170.641 263.295 171.901 263.937C171.507 263.936 171.116 263.854 170.753 263.698C169.749 263.344 168.795 262.861 167.915 262.263C164.906 260.297 162.777 257.241 161.977 253.737C161.177 250.233 161.768 246.555 163.625 243.478C164.161 242.557 164.815 241.71 165.571 240.959C166.113 240.401 166.464 240.177 166.496 240.289Z" fill="#263238"/>
<path d="M165.028 272.181C162.113 272.67 159.228 273.32 156.385 274.127C153.632 275.204 150.939 276.429 148.316 277.794C152.924 273.785 158.934 271.767 165.028 272.181Z" fill="#263238"/>
<g opacity="0.3">
<path d="M113.506 369.358C128.987 381.222 148.264 387.033 167.723 385.703C163.683 404.445 159.654 423.192 155.636 441.945C154.567 446.936 153.563 452.501 156.178 456.902C159.846 463.074 168.377 463.68 175.553 463.584C183.526 463.472 191.85 463.281 198.93 459.581C208.96 454.351 214.35 443.252 218.241 432.632C222.131 422.012 225.496 410.626 233.501 402.637C242.69 413.107 255.129 420.188 268.822 422.746C272.809 423.479 277.337 423.702 280.527 421.151C283.716 418.6 284.625 414.103 283.811 410.148C282.75 406.25 280.983 402.58 278.597 399.321L255.252 363.123C252.063 358.227 248.65 353.061 243.308 350.733C239.114 348.899 234.362 349.138 229.802 349.345C191.688 351.565 153.859 357.282 116.791 366.424" fill="black"/>
</g>
<g opacity="0.3">
<path d="M238.237 189.899C228.797 214.839 193.588 220.563 181.166 244.116C168.935 267.461 184.1 298.333 171.503 321.551C166.83 330.13 158.746 336.524 154.249 345.167C151.187 350.972 149.608 357.924 144.681 362.214C138.909 367.237 129.963 367.141 123.026 363.888C116.089 360.635 110.763 354.799 105.82 348.946C96.5713 337.975 87.8806 326.111 83.4954 312.414C76.0645 288.861 82.8895 262.215 97.847 242.537C112.805 222.86 134.954 209.576 158.347 201.619C181.74 193.662 206.489 190.664 231.094 188.352" fill="black"/>
</g>
<path d="M124.859 124.312C128.433 118.742 133.374 114.18 139.211 111.061C145.09 107.933 151.962 107.24 158.346 109.131C161.484 110.127 164.309 111.92 166.545 114.335C168.781 116.75 170.352 119.704 171.103 122.909C172.108 128.028 170.737 133.736 173.384 138.233C176.414 143.4 183.733 145.026 186.316 150.448C186.995 152.127 187.277 153.94 187.142 155.746C187.006 157.552 186.456 159.302 185.535 160.861C183.675 163.965 181.309 166.735 178.534 169.057C180.206 170.104 181.684 171.431 182.904 172.98C183.509 173.76 183.911 174.679 184.072 175.654C184.234 176.628 184.15 177.627 183.828 178.561C182.789 180.407 181.074 181.779 179.045 182.388C170.136 186.144 160.288 187.068 150.836 185.035C148.316 184.493 145.43 183.807 143.357 185.338" fill="#263238"/>
<path d="M188.692 143.24L183.574 158.852L218.432 178.641L183.35 179.773L185.965 208.205L253.498 191.621C253.498 191.621 257.548 164.082 188.692 143.24L183.908 142.092C183.046 141.889 182.245 141.48 181.576 140.9C180.906 140.319 180.388 139.585 180.065 138.759C179.518 137.416 178.497 136.321 177.195 135.682L171.438 132.684V137.244L174.628 140.96L174.117 149.778C173.984 151.667 174.526 153.541 175.648 155.066C176.77 156.591 178.398 157.668 180.241 158.102L183.43 158.852" fill="#B78876"/>
<path d="M112.326 199.69C110.939 199.69 98.07 202.879 90.7028 212.192C83.3357 221.504 72.6836 256.745 72.6836 256.745L99.7922 261.434L111.497 290.822C111.497 290.822 180.783 281.749 177.099 278.066C173.539 274.789 169.813 271.697 165.937 268.801L181.883 215.684L201.019 205.351L194.561 178.816L156.019 184.031L112.326 199.69Z" fill="#FAFAFA"/>
<path d="M178.567 227.962C178.567 228.186 156.96 228.377 130.329 228.377C103.699 228.377 82.0762 228.186 82.0762 227.962C82.0762 227.739 103.683 227.548 130.329 227.548C156.976 227.548 178.567 227.739 178.567 227.962Z" fill="#FF725E"/>
<path d="M174.245 243.574C174.245 243.797 152.638 243.988 126.008 243.988C99.3779 243.988 77.7549 243.797 77.7549 243.574C77.7549 243.351 99.3461 243.159 126.008 243.159C152.67 243.159 174.245 243.351 174.245 243.574Z" fill="#FF725E"/>
<path d="M174.246 260.429C174.246 260.668 157.885 260.86 137.697 260.86C117.509 260.86 101.164 260.668 101.164 260.429C101.164 260.19 117.525 260.014 137.697 260.014C157.869 260.014 174.246 260.206 174.246 260.429Z" fill="#FF725E"/>
<path d="M179.843 276.678C179.843 276.901 163.482 277.093 143.31 277.093C123.138 277.093 106.777 276.901 106.777 276.678C106.777 276.455 123.122 276.264 143.31 276.264C163.498 276.264 179.843 276.439 179.843 276.678Z" fill="#FF725E"/>
<path d="M197.144 206.961C197.144 207.201 186.333 207.376 173.018 207.376C159.702 207.376 148.875 207.201 148.875 206.961C148.875 206.722 159.671 206.547 173.018 206.547C186.365 206.547 197.144 206.802 197.144 206.961Z" fill="#FF725E"/>
<path d="M198.898 190.409C198.898 190.648 188.134 191.079 174.867 191.382C161.599 191.685 150.804 191.765 150.804 191.541C150.804 191.318 161.551 190.872 174.835 190.553C188.118 190.234 198.898 190.186 198.898 190.409Z" fill="#FF725E"/>
<path d="M105.437 236.063C104.844 240.461 103.976 244.818 102.838 249.107C101.97 253.462 100.836 257.76 99.4414 261.976C100.035 257.579 100.898 253.223 102.025 248.932C102.884 244.573 104.024 240.275 105.437 236.063Z" fill="#263238"/>
<path d="M180.863 435.168L160.675 498.841L185.009 501.297L207.876 445.963L180.863 435.168Z" fill="#B78876"/>
<path d="M198.675 476.516L187.082 505.219C187.082 505.219 212.404 526.667 210.778 532.184L154.232 511.757L170.45 466.215L198.675 476.516Z" fill="#455A64"/>
<path d="M170.482 496.481C169.878 496.449 169.284 496.642 168.813 497.022C168.342 497.401 168.028 497.941 167.931 498.538C167.875 499.14 168.053 499.74 168.427 500.214C168.801 500.689 169.342 501.002 169.94 501.089C170.579 501.121 171.208 500.916 171.705 500.512C172.203 500.109 172.534 499.537 172.635 498.905C172.635 497.693 171.439 496.306 170.243 496.481" fill="#E0E0E0"/>
<path d="M154.232 511.757L156.05 507.229L209.598 528.565C209.598 528.565 211.719 530.558 210.778 532.232L154.232 511.757Z" fill="#E0E0E0"/>
<path d="M188.102 505.315C187.99 505.586 186.507 505.219 184.913 505.602C183.318 505.985 182.09 506.91 181.883 506.702C181.676 506.495 182.648 505.108 184.689 504.613C186.73 504.119 188.245 505.076 188.102 505.315Z" fill="#263238"/>
<path d="M193.141 509.908C193.141 510.211 191.738 510.242 190.383 511.072C189.027 511.901 188.358 512.969 188.039 512.969C187.72 512.969 188.15 511.231 189.856 510.242C191.563 509.254 193.237 509.652 193.141 509.908Z" fill="#263238"/>
<path d="M193.938 518.232C193.667 518.232 193.779 516.637 195.039 515.425C196.298 514.213 197.813 514.038 197.845 514.309C197.877 514.58 196.777 515.106 195.772 516.143C194.767 517.179 194.225 518.311 193.938 518.232Z" fill="#263238"/>
<path d="M189.953 498.474C189.745 498.681 188.613 497.836 187.019 497.374C185.424 496.911 184.021 496.975 183.957 496.688C183.893 496.401 185.44 495.827 187.306 496.401C189.171 496.975 190.224 498.299 189.953 498.474Z" fill="#263238"/>
<path d="M192.248 492.622C191.232 492.534 190.258 492.176 189.426 491.585C188.467 491.037 187.582 490.367 186.795 489.592C186.313 489.147 185.871 488.661 185.471 488.141C185.219 487.851 185.015 487.522 184.865 487.168C184.754 486.907 184.733 486.617 184.805 486.342C184.877 486.068 185.038 485.826 185.264 485.653C185.471 485.511 185.709 485.419 185.959 485.385C186.208 485.352 186.462 485.378 186.699 485.462C187.06 485.595 187.402 485.771 187.72 485.988C188.288 486.353 188.822 486.77 189.314 487.232C190.113 488.01 190.786 488.909 191.308 489.895C191.878 490.753 192.168 491.767 192.137 492.797C191.977 492.797 191.658 491.745 190.686 490.262C190.121 489.401 189.445 488.618 188.676 487.934C188.23 487.521 187.744 487.152 187.225 486.833C186.683 486.467 186.173 486.275 185.934 486.483C185.694 486.69 185.822 486.61 185.934 486.817C186.058 487.074 186.214 487.315 186.396 487.535C186.765 488.023 187.159 488.491 187.576 488.938C188.303 489.685 189.092 490.368 189.936 490.979C190.745 491.472 191.517 492.021 192.248 492.622Z" fill="#263238"/>
<path d="M191.737 492.893C191.494 491.887 191.584 490.83 191.993 489.879C192.517 488.171 193.505 486.642 194.847 485.462C195.134 485.145 195.497 484.907 195.901 484.77C196.306 484.634 196.739 484.603 197.159 484.681C197.41 484.781 197.628 484.948 197.788 485.165C197.949 485.382 198.046 485.64 198.068 485.908C198.096 486.294 198.064 486.681 197.972 487.057C197.843 487.721 197.612 488.361 197.287 488.954C196.752 489.96 195.973 490.815 195.022 491.442C193.428 492.51 192.104 492.43 192.12 492.319C192.973 491.886 193.798 491.402 194.592 490.868C195.377 490.232 196.014 489.432 196.458 488.524C196.706 488.018 196.888 487.482 197 486.929C197.127 486.307 197.079 485.733 196.824 485.717C196.569 485.701 195.899 485.892 195.501 486.291C195.042 486.676 194.62 487.103 194.241 487.567C193.594 488.368 193.057 489.253 192.646 490.198C191.993 491.761 191.913 492.909 191.737 492.893Z" fill="#263238"/>
<path d="M257.484 375.226L287.623 427.609L312.276 411.79L282.01 358.61L257.484 375.226Z" fill="#B78876"/>
<path d="M303.76 396.817L319.34 423.67C319.34 423.67 351.806 416.845 355.171 421.518L304.27 453.57L278.294 412.763L303.76 396.817Z" fill="#455A64"/>
<path d="M302.198 431.341C301.793 431.789 301.569 432.371 301.569 432.975C301.569 433.579 301.793 434.161 302.198 434.61C302.633 435.008 303.202 435.23 303.792 435.23C304.383 435.23 304.952 435.008 305.387 434.61C305.805 434.123 306.029 433.498 306.014 432.856C305.999 432.214 305.748 431.601 305.307 431.133C304.8 430.754 304.167 430.584 303.537 430.658C302.908 430.732 302.332 431.045 301.927 431.532" fill="#E0E0E0"/>
<path d="M304.271 453.538L301.815 449.328L351.536 420.178C351.536 420.178 354.422 419.732 355.171 421.486L304.271 453.538Z" fill="#E0E0E0"/>
<path d="M319.993 422.857C320.137 423.112 318.973 424.005 318.255 425.568C317.538 427.131 317.538 428.598 317.251 428.646C316.963 428.693 316.421 427.051 317.251 425.137C318.08 423.224 319.898 422.586 319.993 422.857Z" fill="#263238"/>
<path d="M326.723 421.693C326.93 421.9 326.117 423.001 325.941 424.595C325.766 426.19 326.212 427.434 325.941 427.577C325.67 427.721 324.65 426.429 324.905 424.388C325.16 422.347 326.563 421.47 326.723 421.693Z" fill="#263238"/>
<path d="M333.787 426.174C333.579 426.381 332.463 425.361 332.192 423.591C331.921 421.821 332.798 420.561 333.037 420.689C333.276 420.816 333.037 422.012 333.213 423.463C333.388 424.914 334.01 425.999 333.787 426.174Z" fill="#263238"/>
<path d="M315.768 417.132C315.768 417.435 314.445 417.802 313.105 418.727C311.766 419.652 310.952 420.832 310.681 420.704C310.41 420.577 310.921 419.014 312.515 417.882C314.11 416.75 315.768 416.861 315.768 417.132Z" fill="#263238"/>
<path d="M312.53 411.791C312.53 411.886 311.717 412.668 309.979 413.385C308.951 413.79 307.882 414.079 306.79 414.246C306.139 414.328 305.484 414.376 304.828 414.39C304.441 414.404 304.055 414.361 303.68 414.262C303.408 414.188 303.168 414.026 302.998 413.801C302.827 413.576 302.736 413.301 302.739 413.018C302.753 412.765 302.826 412.519 302.954 412.3C303.081 412.081 303.259 411.895 303.473 411.759C303.797 411.561 304.145 411.405 304.509 411.296C306.195 410.718 308.002 410.581 309.756 410.898C311.637 411.248 312.626 411.934 312.562 412.03C312.498 412.125 311.446 411.759 309.676 411.615C308.642 411.539 307.603 411.592 306.582 411.775C305.991 411.88 305.41 412.035 304.844 412.237C304.206 412.444 303.744 412.731 303.76 413.05C303.776 413.369 303.76 413.21 303.999 413.305C304.276 413.37 304.56 413.396 304.844 413.385C306.496 413.407 308.142 413.176 309.724 412.699C310.636 412.328 311.574 412.024 312.53 411.791Z" fill="#263238"/>
<path d="M312.435 412.349C312.435 412.444 311.319 411.854 310.202 410.307C309.562 409.392 309.087 408.372 308.799 407.294C308.627 406.657 308.515 406.006 308.464 405.348C308.392 404.924 308.43 404.488 308.576 404.083C308.721 403.678 308.968 403.318 309.293 403.036C309.518 402.894 309.777 402.819 310.043 402.819C310.308 402.819 310.568 402.894 310.792 403.036C311.114 403.25 311.404 403.507 311.653 403.801C312.092 404.323 312.457 404.902 312.738 405.524C313.191 406.567 313.383 407.706 313.296 408.84C313.136 410.786 312.291 411.743 312.211 411.663C312.388 410.725 312.51 409.777 312.578 408.824C312.558 407.818 312.318 406.827 311.877 405.922C311.624 405.394 311.296 404.906 310.904 404.471C310.489 403.993 310.011 403.674 309.835 403.865C309.676 404.055 309.561 404.278 309.498 404.518C309.434 404.758 309.424 405.009 309.469 405.253C309.497 405.854 309.577 406.451 309.708 407.039C309.942 408.038 310.318 408.999 310.824 409.893C311.685 411.456 312.546 412.221 312.435 412.349Z" fill="#263238"/>
<path d="M167.771 367.859L226.963 327.61L264.293 400.277L298.227 381.891C298.227 381.891 259.143 286.533 245.11 283.503C237.249 281.781 147.089 298.987 147.089 298.987L137.011 293.932L111.497 290.823L109.902 294.953C105.448 306.23 103.4 318.314 103.889 330.43C104.378 342.545 107.393 354.425 112.741 365.307L113.984 367.843L167.771 367.859Z" fill="#263238"/>
<path d="M146.993 317.501C147.439 319.494 196.426 365.339 196.426 365.339L168.201 460.203L210.331 468.256L252.637 353.986L175.313 278.129L139.929 292.912L146.993 317.501Z" fill="#263238"/>
<path d="M226.963 327.594C227.091 327.786 213.935 336.939 197.606 348.053C181.277 359.168 167.914 368.018 167.771 367.859C167.627 367.699 180.783 358.498 197.128 347.384C213.473 336.269 226.82 327.403 226.963 327.594Z" fill="#455A64"/>
<path d="M257.341 386.723C256.796 386.041 256.315 385.31 255.906 384.538C255.029 383.103 253.817 380.982 252.334 378.367C249.384 373.121 245.461 365.786 241.315 357.637C237.169 349.489 233.502 341.978 230.934 336.54C229.643 333.813 228.622 331.597 227.937 330.066C227.534 329.292 227.208 328.48 226.964 327.642C227.445 328.37 227.872 329.132 228.24 329.923L231.429 336.301C234.203 341.803 237.919 349.154 242.017 357.302C246.115 365.451 249.99 372.85 252.813 378.16C254.168 380.727 255.3 382.848 256.161 384.459C256.613 385.182 257.007 385.939 257.341 386.723Z" fill="#455A64"/>
<path d="M205.213 348.372C203.955 351.87 202.441 355.27 200.684 358.546C199.167 361.935 197.403 365.207 195.406 368.337C198.176 361.448 201.454 354.775 205.213 348.372Z" fill="#455A64"/>
<path d="M72.6834 256.745L63.1157 292.082C61.8808 296.653 62.4518 301.523 64.7103 305.684C66.6374 309.262 69.687 312.106 73.3896 313.781C77.0922 315.455 81.2424 315.865 85.2012 314.949L161.025 296.276L153.052 280.521L93.3179 285.704L99.6963 261.434L72.6834 256.745Z" fill="#B78876"/>
<path d="M106.314 310.373L107.303 305.238L148.397 297.855L160.34 234.5L236.659 225.411L223.838 293.039L106.314 310.373Z" fill="#455A64"/>
<path d="M194.608 268.625C193.731 268.587 192.886 268.281 192.188 267.749C191.489 267.217 190.97 266.484 190.7 265.648C190.43 264.813 190.422 263.914 190.677 263.074C190.932 262.234 191.438 261.491 192.126 260.947C192.815 260.402 193.654 260.081 194.531 260.027C195.407 259.973 196.28 260.188 197.03 260.643C197.781 261.099 198.375 261.773 198.731 262.576C199.088 263.378 199.19 264.271 199.025 265.133C198.898 266.18 198.362 267.133 197.535 267.787C196.708 268.441 195.656 268.742 194.608 268.625Z" fill="#EBEBEB"/>
<path d="M117.477 128.665L117.62 133.242L119.342 201.811C119.55 209.784 126.55 215.939 135.065 215.652C143.676 215.381 150.597 208.636 150.533 200.583C150.453 192.147 150.533 183.249 150.533 183.249C150.533 183.249 161.392 181.32 163.481 167.096C164.518 160.032 164.024 148.455 163.322 138.999C163.172 136.982 162.616 135.016 161.687 133.22C160.757 131.424 159.474 129.834 157.914 128.547C156.354 127.26 154.55 126.302 152.61 125.73C150.67 125.158 148.635 124.985 146.626 125.221L117.477 128.665Z" fill="#B78876"/>
<path d="M157.82 146.956C157.829 147.431 157.653 147.892 157.329 148.24C157.004 148.588 156.557 148.797 156.082 148.821C155.854 148.841 155.624 148.815 155.405 148.746C155.187 148.676 154.984 148.564 154.81 148.416C154.635 148.267 154.491 148.086 154.386 147.882C154.282 147.678 154.219 147.455 154.201 147.227C154.191 146.754 154.366 146.295 154.687 145.948C155.007 145.6 155.45 145.39 155.923 145.361C156.386 145.321 156.846 145.467 157.201 145.766C157.557 146.065 157.78 146.493 157.82 146.956Z" fill="#263238"/>
<path d="M160.882 145.106C160.659 145.345 159.287 144.341 157.31 144.357C155.333 144.372 153.929 145.393 153.706 145.154C153.483 144.915 153.834 144.612 154.456 144.149C155.295 143.554 156.297 143.231 157.326 143.224C158.345 143.214 159.343 143.521 160.18 144.101C160.786 144.612 160.994 144.994 160.882 145.106Z" fill="#263238"/>
<path d="M138.493 147.657C138.506 148.134 138.332 148.597 138.006 148.946C137.681 149.295 137.232 149.502 136.755 149.523C136.292 149.563 135.832 149.417 135.477 149.118C135.121 148.819 134.898 148.391 134.858 147.929C134.849 147.454 135.026 146.996 135.351 146.65C135.675 146.304 136.122 146.099 136.596 146.079C136.824 146.057 137.055 146.08 137.274 146.148C137.493 146.216 137.697 146.326 137.874 146.473C138.05 146.62 138.196 146.8 138.302 147.003C138.408 147.206 138.473 147.429 138.493 147.657Z" fill="#263238"/>
<path d="M141.635 145.696C141.412 145.935 140.04 144.931 138.063 144.947C136.085 144.962 134.682 145.983 134.459 145.744C134.236 145.505 134.571 145.202 135.193 144.739C136.038 144.144 137.045 143.821 138.079 143.814C139.093 143.805 140.085 144.111 140.917 144.691C141.523 145.154 141.746 145.584 141.635 145.696Z" fill="#263238"/>
<path d="M148.906 160.127C149.94 159.794 151.011 159.591 152.096 159.521C152.606 159.521 153.068 159.362 153.148 159.011C153.186 158.498 153.063 157.985 152.797 157.544L151.282 153.749C149.87 150.541 148.718 147.224 147.838 143.83C149.513 146.895 150.926 150.096 152.064 153.398L153.531 157.209C153.847 157.811 153.949 158.503 153.818 159.171C153.746 159.348 153.636 159.507 153.495 159.637C153.355 159.766 153.187 159.863 153.004 159.92C152.724 159.997 152.434 160.04 152.143 160.048C151.072 160.214 149.984 160.241 148.906 160.127Z" fill="#263238"/>
<path d="M150.533 183.297C143.834 183.511 137.208 181.855 131.397 178.513C131.397 178.513 136.181 188.209 150.31 186.71L150.533 183.297Z" fill="#AA6550"/>
<path d="M142.416 142.459C142.209 142.985 140.263 142.65 137.951 142.81C135.639 142.969 133.757 143.527 133.47 143.033C133.342 142.794 133.693 142.315 134.459 141.837C135.483 141.236 136.637 140.891 137.823 140.832C139.005 140.744 140.19 140.935 141.284 141.39C142.113 141.773 142.512 142.22 142.416 142.459Z" fill="#263238"/>
<path d="M160.069 138.233C159.718 138.68 158.363 138.233 156.752 138.233C155.142 138.233 153.754 138.568 153.435 138.106C153.116 137.643 153.435 137.436 154.089 137.005C154.891 136.487 155.83 136.221 156.785 136.24C157.74 136.26 158.667 136.566 159.447 137.117C160.021 137.627 160.212 138.09 160.069 138.233Z" fill="#263238"/>
<path d="M148.7 167.223C148.125 167.316 147.537 167.255 146.993 167.048L145.399 166.601C144.952 166.458 144.458 166.251 143.9 166.043C143.34 165.89 142.833 165.587 142.433 165.166C142.098 164.736 142.162 163.97 142.927 163.285C143.459 162.898 144.075 162.643 144.724 162.542C145.374 162.441 146.038 162.496 146.662 162.704C147.286 162.911 147.851 163.265 148.311 163.734C148.771 164.204 149.112 164.777 149.306 165.406C149.641 166.41 149.226 167.08 148.7 167.223Z" fill="#AA6550"/>
<path d="M148.971 167.048C148.779 167.192 147.822 165.23 145.526 164.64C144.122 164.439 142.69 164.598 141.364 165.103C141.364 165.103 141.619 164.592 142.401 164.194C143.433 163.679 144.617 163.554 145.734 163.843C146.854 164.126 147.834 164.806 148.492 165.756C148.987 166.474 149.066 167.016 148.971 167.048Z" fill="#263238"/>
<path d="M133.901 119.448C136.092 122.902 137.032 127.002 136.564 131.065C136.097 135.127 134.251 138.907 131.334 141.773C127.937 144.962 122.883 147.402 122.548 152.027C122.165 157.145 128.097 160.972 128.097 166.107C128.097 171.242 122.021 174.75 120.825 179.901C119.869 184.047 122.42 188.193 125.227 191.334C128.033 194.475 131.605 197.25 133.2 201.141C134.046 203.333 134.44 205.674 134.358 208.023C134.276 210.371 133.719 212.679 132.721 214.807C130.703 219.036 128.01 222.908 124.748 226.272C120.508 224.754 116.093 223.773 111.609 223.354C111.88 221.664 112.167 219.957 112.454 218.267C112.411 219.255 112.057 220.205 111.441 220.978C110.825 221.752 109.979 222.31 109.025 222.573C107.103 223.061 105.092 223.089 103.157 222.652C97.1802 221.708 91.3068 220.197 85.6162 218.14C88.1611 215.846 90.3154 213.153 91.9947 210.166C92.8223 208.656 93.2706 206.967 93.3012 205.245C93.3317 203.523 92.9436 201.819 92.1701 200.28C90.7668 197.888 88.1836 196.357 86.8919 193.901C84.9624 190.234 86.557 185.577 89.2998 182.468C92.0425 179.358 95.7739 177.333 99.0429 174.782C102.312 172.23 105.31 168.786 105.565 164.64C105.916 159.282 101.562 154.387 102.105 149.045C102.711 142.953 109.153 139.222 111.672 133.641C113.506 129.606 113.267 124.631 116.073 121.203C117.174 119.979 118.543 119.026 120.072 118.417C121.602 117.809 123.251 117.561 124.892 117.694C128.171 117.979 131.327 119.075 134.077 120.884" fill="#263238"/>
<path d="M151.682 184.828C149.13 186.231 149.274 190.138 150.837 192.61C152.399 195.081 154.903 196.851 156.45 199.339C157.757 201.61 158.213 204.273 157.737 206.849C157.261 209.426 155.883 211.75 153.85 213.404L159.974 215.716L161.313 214.966L165.077 212.83L163.307 217.183H167.229C169.313 217.226 171.367 216.684 173.159 215.62C174.951 214.555 176.41 213.011 177.369 211.16C178.328 209.31 178.75 207.228 178.587 205.15C178.424 203.072 177.682 201.081 176.446 199.403C174.852 197.17 172.332 195.4 171.774 192.705C171.12 189.436 173.592 186.486 174.788 183.393C175.74 180.78 175.839 177.932 175.071 175.259C174.303 172.586 172.708 170.225 170.514 168.515" fill="#263238"/>
<path d="M52.1666 32.594C52.5259 32.7723 52.8283 33.0474 53.0396 33.3883C53.2509 33.7292 53.3628 34.1224 53.3626 34.5235V45.1437C53.362 45.4716 53.2853 45.7949 53.1387 46.0881C52.9921 46.3814 52.7794 46.6367 52.5175 46.834C52.2569 47.0368 51.9516 47.1745 51.6271 47.2355C51.3026 47.2965 50.9682 47.2791 50.6518 47.1848C49.7762 46.9609 48.8645 46.9162 47.9712 47.0532C47.0779 47.1902 46.2215 47.5061 45.4533 47.9821C44.7453 48.3864 44.128 48.9319 43.6398 49.5848C43.1515 50.2376 42.8026 50.984 42.6149 51.7773C42.4726 52.5839 42.4953 53.411 42.6817 54.2085C42.8681 55.0061 43.2142 55.7576 43.6992 56.4176C44.2032 57.1661 44.85 57.8078 45.6025 58.3058C46.355 58.8039 47.1985 59.1485 48.0844 59.3199C49.8838 59.4999 51.6909 59.063 53.2093 58.0807C54.7276 57.0984 55.8669 55.6292 56.4402 53.9141C56.525 53.6481 56.6614 53.4015 56.8415 53.1882C57.0217 52.975 57.242 52.7993 57.4901 52.6712C57.7381 52.5432 58.0089 52.4652 58.2871 52.4417C58.5652 52.4183 58.8453 52.4499 59.1112 52.5347C59.3772 52.6195 59.6238 52.7559 59.8371 52.936C60.0503 53.1162 60.226 53.3365 60.3541 53.5846C60.4822 53.8326 60.5601 54.1034 60.5835 54.3816C60.607 54.6597 60.5754 54.9398 60.4906 55.2057C59.6029 57.8867 57.817 60.1791 55.4346 61.6957C53.0522 63.2123 50.2194 63.8601 47.4147 63.5297C45.9554 63.2794 44.5625 62.7347 43.3206 61.9287C42.0787 61.1227 41.0139 60.0723 40.191 58.8415C39.3758 57.6996 38.8001 56.4045 38.4987 55.0343C38.1972 53.664 38.1762 52.2469 38.4369 50.8684C38.7436 49.5047 39.3263 48.2183 40.149 47.0884C40.9718 45.9585 42.0172 45.009 43.2208 44.2985C44.987 43.237 47.0125 42.6851 49.0731 42.7039V34.5235C49.0731 33.9568 49.2982 33.4133 49.6989 33.0125C50.0996 32.6118 50.6432 32.3867 51.2099 32.3867C51.5401 32.3847 51.8668 32.4554 52.1666 32.594Z" fill="#FFC727"/>
<path d="M49.2317 28.1291C49.2256 27.7861 49.321 27.4489 49.5061 27.1601C49.6912 26.8712 49.9576 26.6436 50.2718 26.5059C50.586 26.3682 50.9339 26.3265 51.2718 26.3861C51.6096 26.4458 51.9222 26.6041 52.1703 26.841C52.4183 27.078 52.5907 27.3831 52.6657 27.7178C52.7407 28.0526 52.7149 28.4021 52.5917 28.7222C52.4685 29.0424 52.2532 29.3189 51.9732 29.5169C51.6931 29.715 51.3606 29.8258 51.0177 29.8353C50.7881 29.8416 50.5595 29.8024 50.3452 29.7199C50.1308 29.6374 49.935 29.5133 49.7689 29.3546C49.6028 29.1959 49.4698 29.0059 49.3776 28.7956C49.2854 28.5852 49.2359 28.3587 49.2317 28.1291Z" fill="#FF725E"/>
<path d="M101.2 84.9932C101.2 84.9932 100.674 84.9932 99.7972 85.4397C98.596 85.957 97.5828 86.831 96.895 87.9433C96.4069 88.7043 96.0962 89.5654 95.986 90.4628C95.8633 91.4921 96.0463 92.5347 96.5123 93.4607C96.9894 94.5604 97.7928 95.4869 98.8137 96.1152C99.8346 96.7434 101.024 97.043 102.221 96.9735C103.417 96.9039 104.564 96.4685 105.505 95.7262C106.446 94.9838 107.137 93.9704 107.483 92.8228C107.84 91.847 107.901 90.7875 107.659 89.7771C107.436 88.8986 107.028 88.0778 106.463 87.3692C105.642 86.3421 104.53 85.5863 103.273 85.2005C102.365 84.9454 101.822 84.9773 101.822 84.9295H102.205C102.364 84.9156 102.524 84.9156 102.683 84.9295C102.893 84.9414 103.102 84.9734 103.305 85.0251C104.655 85.3439 105.864 86.0941 106.75 87.1619C107.379 87.8885 107.832 88.7508 108.073 89.6814C108.335 90.736 108.285 91.8439 107.93 92.8707C107.54 94.0351 106.833 95.0678 105.889 95.8526C104.882 96.7181 103.625 97.2379 102.301 97.3356C100.977 97.388 99.6706 97.0196 98.5693 96.2832C97.5353 95.6197 96.7069 94.6809 96.1774 93.5723C95.7035 92.5805 95.5211 91.4745 95.6512 90.3831C95.786 89.4297 96.1349 88.5193 96.6717 87.72C97.4351 86.5545 98.5533 85.6655 99.861 85.1846C100.064 85.1122 100.272 85.0536 100.483 85.0092C100.633 84.9634 100.788 84.9366 100.945 84.9295C101.033 84.9393 101.119 84.9607 101.2 84.9932Z" fill="#FFCC00"/>
<path d="M116.765 100.413C116.765 100.413 116.43 100.493 115.904 100.732C115.145 101.066 114.506 101.622 114.07 102.327C113.74 102.828 113.546 103.405 113.507 104.004C113.468 104.602 113.585 105.2 113.846 105.739C114.144 106.416 114.641 106.986 115.271 107.372C115.902 107.758 116.636 107.942 117.374 107.898C118.112 107.855 118.819 107.587 119.4 107.129C119.981 106.672 120.408 106.048 120.624 105.341C120.822 104.774 120.869 104.166 120.76 103.576C120.651 102.985 120.39 102.434 120.002 101.976C119.487 101.325 118.786 100.847 117.992 100.605C117.434 100.429 117.1 100.445 117.1 100.397C117.408 100.317 117.732 100.317 118.04 100.397C118.768 100.57 119.436 100.935 119.974 101.454C120.513 101.973 120.902 102.627 121.102 103.347C121.3 104.03 121.3 104.754 121.102 105.436C120.867 106.228 120.394 106.928 119.747 107.441C119.1 107.954 118.311 108.255 117.487 108.304C116.663 108.353 115.844 108.146 115.141 107.713C114.438 107.28 113.886 106.641 113.559 105.883C113.241 105.242 113.124 104.519 113.225 103.81C113.31 103.204 113.534 102.626 113.878 102.12C114.368 101.381 115.085 100.822 115.919 100.525C116.19 100.426 116.478 100.388 116.765 100.413Z" fill="#FFCC00"/>
<path d="M98.6811 53.3879C98.6811 53.3879 98.6811 53.1168 98.6811 52.5906C98.6811 52.0644 98.6811 51.2671 98.6811 50.2465C98.6811 49.7203 98.6811 49.1462 98.6811 48.5084C98.6811 47.8705 98.5854 47.1848 98.5376 46.4354C98.4897 45.6859 98.4259 44.8408 98.3462 44.0115C98.326 43.5661 98.2673 43.1233 98.1708 42.688L97.9316 41.2848C97.145 36.5967 95.6559 32.0541 93.5145 27.8102C90.7278 22.1947 86.8899 17.1658 82.2086 12.9962L80.2154 11.258C79.5137 10.7159 78.7643 10.2056 78.0307 9.6634L76.8986 8.86609C76.5426 8.573 76.1579 8.31654 75.7504 8.10066L73.2947 6.61767C72.8801 6.37848 72.4815 6.12334 72.0509 5.9001L70.7274 5.29413L68.0644 4.08223C67.1395 3.69952 66.1827 3.41248 65.2419 3.07761L63.8067 2.58328L63.0732 2.3441L62.3237 2.16869C60.3108 1.63721 58.2653 1.23771 56.2004 0.97272C55.1479 0.861097 54.0795 0.669725 53.0111 0.60594L49.8219 0.510266C49.2797 0.510266 48.7375 0.510266 48.2273 0.510266L46.6326 0.637839C45.5164 0.733516 44.4002 0.765406 43.2999 0.908922C41.0443 1.22949 38.8124 1.69827 36.6184 2.3122L34.9441 2.79059C34.673 2.79059 34.386 2.93409 34.1149 3.02977L33.3016 3.34869L30.0167 4.62439C28.9483 5.10278 27.8958 5.67684 26.8274 6.21902C26.3012 6.50605 25.759 6.7293 25.2328 7.04823L23.6382 8.02095C21.5717 9.31575 19.5952 10.7489 17.7222 12.3105L15.0272 14.8459L14.3416 15.4838L13.7197 16.1854L12.4918 17.6046L11.248 19.0079L10.1318 20.6025L9.03147 22.1971L8.47335 22.9785C8.29794 23.2496 8.13848 23.5207 7.97902 23.7918L6.04953 27.1245C5.5233 28.2886 4.98113 29.4527 4.4549 30.6327C0.304545 40.3847 -0.541104 51.2269 2.04702 61.5046L3.09947 65.236L4.48679 68.8079L4.83761 69.7009L5.26816 70.5461L6.12926 72.2523L6.9744 73.9267L7.99496 75.5213L8.99957 77.1159L9.49391 77.8973L10.068 78.6308L12.3483 81.5649C13.9585 83.3959 15.6899 85.1166 17.5308 86.7155L18.8862 87.9115C19.3327 88.3101 19.843 88.6291 20.3214 88.9799C21.2941 89.6656 22.2349 90.3991 23.2236 91.0369L26.2534 92.7272L27.0029 93.1737L27.8002 93.5405L29.3948 94.2581C31.4664 95.2029 33.597 96.0125 35.7733 96.6819C36.8576 97.0008 37.9579 97.2081 38.9625 97.4792L40.5571 97.8619C41.0993 97.9736 41.6415 98.0054 42.1518 98.0852L45.341 98.4998C46.4094 98.6114 47.4778 98.4998 48.5302 98.6273C50.6165 98.6978 52.7052 98.6232 54.7812 98.4041H55.5466L56.296 98.2765L57.795 98.0214C58.7837 97.83 59.7723 97.7025 60.7291 97.4633L63.5675 96.6819L64.9708 96.2992L66.3103 95.773L68.9414 94.7524C69.3767 94.5969 69.7981 94.4048 70.2011 94.1784L71.4449 93.5565C72.2582 93.1419 73.0396 92.7591 73.8528 92.3286L76.0853 90.9094C81.3923 87.5151 85.9901 83.1231 89.6236 77.977C90.0223 77.4189 90.4369 76.8767 90.8196 76.3824L91.8083 74.6921L92.765 73.0975C92.9245 72.8264 93.084 72.5712 93.2275 72.3001C93.371 72.0291 93.4667 71.742 93.5943 71.4709L95.0294 68.3774C95.444 67.3887 95.731 66.3841 96.0659 65.4752L96.5443 64.1197C96.701 63.7052 96.8237 63.2785 96.9111 62.844L97.4851 60.4681C97.6446 59.7345 97.8359 59.0648 97.9476 58.4429C98.0592 57.821 98.107 57.2469 98.1868 56.7366C98.3143 55.7161 98.4259 54.9507 98.5057 54.4085C98.5854 53.8663 98.6333 53.6271 98.6333 53.6271C98.6333 53.6271 98.6333 53.8982 98.6333 54.4244L98.3462 56.7526C98.3462 57.2629 98.2187 57.8369 98.1389 58.4588C98.0592 59.0807 97.8519 59.7664 97.6924 60.4999C97.533 61.2335 97.3416 62.0946 97.1503 62.8759C97.0651 63.3162 96.9424 63.7483 96.7835 64.1676C96.624 64.6141 96.4805 65.0606 96.3211 65.523C95.9862 66.4479 95.7151 67.4525 95.2846 68.4571C94.854 69.4617 94.3597 70.4823 93.8813 71.6463L93.4986 72.4756C93.371 72.7466 93.1956 73.0177 93.0521 73.2888C92.7332 73.815 92.4142 74.3731 92.0953 74.8834C91.7764 75.3937 91.4415 76.0156 91.1066 76.6056C90.7718 77.1956 90.3093 77.7059 89.9107 78.28C86.2465 83.4001 81.6279 87.7642 76.3085 91.1326L74.0601 92.5678C73.2788 92.9983 72.4655 93.397 71.6363 93.8116L70.4085 94.4494C69.9985 94.673 69.572 94.8649 69.1328 95.0235L66.4697 96.06L65.1302 96.5862L63.727 96.9849L60.8726 97.7822C59.8999 98.0214 58.8953 98.149 57.9066 98.3403L56.3917 98.6114L55.6423 98.739H54.8609C52.775 98.9688 50.6757 99.0541 48.5781 98.9941C47.5097 98.9941 46.4253 98.9941 45.3888 98.8665L42.1996 98.4519C41.6415 98.4519 41.0993 98.3403 40.605 98.2127L39.0104 97.846C37.926 97.5749 36.8098 97.3676 35.7254 97.0487C33.5453 96.3843 31.414 95.569 29.3469 94.6089L27.7523 93.8913L26.955 93.5246L26.1896 93.0781L23.112 91.2921C22.1233 90.6543 21.1665 89.9048 20.1938 89.2191C19.6995 88.8523 19.1892 88.5334 18.7427 88.1347L17.3713 86.9388C15.4273 85.3263 13.5995 83.5785 11.9018 81.7084L9.58958 78.7584L9.01552 78.0089L8.50524 77.2116L7.50063 75.617L6.48007 74.0223L5.61898 72.332L4.74193 70.6098L4.31139 69.7487L3.92868 68.8079C3.45029 67.612 2.98785 66.4 2.52541 65.2041C2.06297 64.0081 1.82378 62.7005 1.45701 61.4408C-1.1259 51.0724 -0.258171 40.1446 3.92868 30.3138L5.5233 26.7578C6.17709 25.6415 6.83089 24.5253 7.46874 23.409C7.64415 23.138 7.78766 22.8509 7.96307 22.5798L8.52119 21.7985L9.65337 20.2039L10.7696 18.6092L12.0294 17.1741L13.2732 15.7548L13.8951 15.0532L14.5807 14.3994L17.3076 11.8321C19.1994 10.261 21.1974 8.82247 23.2874 7.52662L24.882 6.5539C25.3923 6.21903 25.9504 5.99576 26.4766 5.70872C27.545 5.1825 28.5975 4.59249 29.6659 4.1141L32.9827 2.82246L33.8119 2.50354L34.6411 2.26436L36.3314 1.80191C38.54 1.18186 40.7883 0.713031 43.0607 0.398655C44.1929 0.255139 45.3091 0.207288 46.4253 0.111611L48.02 0C48.5621 0 49.1203 0 49.6146 0L52.8995 0.0956734C53.9838 0.0956734 55.0363 0.350797 56.0887 0.478367C58.173 0.736592 60.2356 1.14698 62.2599 1.70623L63.0253 1.88164C63.2645 1.88164 63.5037 2.04109 63.7429 2.12083L65.194 2.61518C66.1508 2.966 67.1235 3.23706 68.0325 3.61977L70.9028 5.02305L72.2263 5.62901L73.4861 6.34659L75.9418 7.78174C76.3478 8.01432 76.7368 8.27544 77.1059 8.56311L78.238 9.37636C78.9716 9.91853 79.737 10.4288 80.4386 10.971L82.4478 12.7251C87.1687 16.948 91.0293 22.0432 93.8175 27.7305C95.9598 31.998 97.4335 36.5695 98.1868 41.2848C98.2665 41.7631 98.3462 42.2415 98.426 42.688C98.5086 43.1305 98.5619 43.578 98.5854 44.0275C98.5854 44.8886 98.713 45.7018 98.7608 46.4513C98.8087 47.2008 98.8725 47.9024 98.8884 48.5403C98.9043 49.1781 98.8884 49.7522 98.8884 50.2784C98.8884 51.299 98.8884 52.0803 98.8884 52.6225L98.6811 53.3879Z" fill="#263238"/>
</svg>