<svg width="25" height="24" viewBox="0 0 25 24" fill="none" xmlns="http://www.w3.org/2000/svg">
<path d="M21.9246 9.90892H21.1362V9.8683H12.3275V13.7833H17.8589C17.0519 16.0623 14.8835 17.6983 12.3275 17.6983C9.08442 17.6983 6.45502 15.0689 6.45502 11.8258C6.45502 8.58272 9.08442 5.95331 12.3275 5.95331C13.8245 5.95331 15.1864 6.51805 16.2234 7.44052L18.9918 4.67214C17.2437 3.04301 14.9055 2.03833 12.3275 2.03833C6.92237 2.03833 2.54004 6.42067 2.54004 11.8258C2.54004 17.2309 6.92237 21.6133 12.3275 21.6133C17.7326 21.6133 22.115 17.2309 22.115 11.8258C22.115 11.1695 22.0474 10.529 21.9246 9.90892Z" fill="#FFC107"/>
<path d="M3.66797 7.27022L6.88364 9.62851C7.75374 7.47429 9.86098 5.95331 12.3269 5.95331C13.8239 5.95331 15.1859 6.51805 16.2228 7.44052L18.9912 4.67214C17.2432 3.04301 14.905 2.03833 12.3269 2.03833C8.56757 2.03833 5.30737 4.16074 3.66797 7.27022Z" fill="#FF3D00"/>
<path d="M12.3275 21.6134C14.8556 21.6134 17.1528 20.6459 18.8895 19.0725L15.8603 16.5092C14.8447 17.2816 13.6036 17.6994 12.3275 17.6984C9.78183 17.6984 7.62027 16.0751 6.80595 13.8098L3.61426 16.2689C5.23408 19.4386 8.52365 21.6134 12.3275 21.6134Z" fill="#4CAF50"/>
<path d="M21.9242 9.9089H21.1359V9.86829H12.3271V13.7833H17.8585C17.4725 14.8679 16.7772 15.8157 15.8585 16.5096L15.8599 16.5086L18.8892 19.0719C18.6748 19.2667 22.1146 16.7195 22.1146 11.8258C22.1146 11.1695 22.0471 10.5289 21.9242 9.9089Z" fill="#1976D2"/>
</svg>