<svg width="31" height="24" viewBox="0 0 31 24" fill="none" xmlns="http://www.w3.org/2000/svg">
<g clip-path="url(#clip0_1014_748)">
<path d="M5.61527 23.8807V22.2922C5.61527 21.6832 5.24453 21.2861 4.60908 21.2861C4.29141 21.2861 3.94721 21.392 3.7089 21.7362C3.52365 21.445 3.25893 21.2861 2.86178 21.2861C2.59694 21.2861 2.33233 21.3655 2.12043 21.6567V21.3391H1.56445V23.8807H2.12043V22.4775C2.12043 22.0275 2.35874 21.8156 2.72948 21.8156C3.09997 21.8156 3.28546 22.0539 3.28546 22.4775V23.8807H3.84144V22.4775C3.84144 22.0275 4.10604 21.8156 4.45024 21.8156C4.82098 21.8156 5.00622 22.0539 5.00622 22.4775V23.8807H5.61527ZM13.849 21.3391H12.9489V20.5713H12.3929V21.3391H11.8899V21.842H12.3928V23.007C12.3928 23.5895 12.6311 23.9336 13.2666 23.9336C13.5049 23.9336 13.7695 23.8543 13.955 23.7484L13.796 23.2717C13.6372 23.3776 13.4519 23.4042 13.3195 23.4042C13.0548 23.4042 12.9489 23.2453 12.9489 22.9805V21.842H13.849V21.3391ZM18.5616 21.286C18.244 21.286 18.0322 21.445 17.8998 21.6567V21.3391H17.3438V23.8807H17.8998V22.451C17.8998 22.0275 18.085 21.7892 18.4292 21.7892C18.5351 21.7892 18.6675 21.8157 18.7734 21.8421L18.9323 21.3127C18.8264 21.2861 18.6675 21.2861 18.5616 21.2861V21.286ZM11.4398 21.5509C11.1749 21.3655 10.8043 21.2861 10.4072 21.2861C9.77185 21.2861 9.34829 21.6038 9.34829 22.1068C9.34829 22.5305 9.66596 22.7687 10.2219 22.8482L10.4867 22.8747C10.7779 22.9275 10.9368 23.007 10.9368 23.1394C10.9368 23.3247 10.725 23.4571 10.3542 23.4571C9.98363 23.4571 9.69237 23.3247 9.50701 23.1924L9.24228 23.6159C9.53354 23.8277 9.93069 23.9336 10.3277 23.9336C11.0691 23.9336 11.4927 23.5895 11.4927 23.1129C11.4927 22.6628 11.1485 22.4245 10.619 22.3451L10.3542 22.3186C10.1159 22.2921 9.93068 22.2393 9.93068 22.0804C9.93068 21.8951 10.1159 21.7892 10.4072 21.7892C10.725 21.7892 11.0426 21.9215 11.2015 22.0009L11.4398 21.5509ZM26.2131 21.2861C25.8953 21.2861 25.6835 21.445 25.5511 21.6567V21.3391H24.9951V23.8807H25.5511V22.451C25.5511 22.0275 25.7364 21.7892 26.0805 21.7892C26.1865 21.7892 26.3189 21.8157 26.4248 21.8421L26.5837 21.3127C26.4778 21.2861 26.3189 21.2861 26.2131 21.2861ZM19.1176 22.6099C19.1176 23.3776 19.6471 23.9336 20.4679 23.9336C20.8385 23.9336 21.1032 23.8543 21.368 23.6425L21.1032 23.1924C20.8914 23.3512 20.6797 23.4306 20.4414 23.4306C19.9913 23.4306 19.6736 23.1129 19.6736 22.6099C19.6736 22.1334 19.9913 21.8156 20.4414 21.7892C20.6797 21.7892 20.8914 21.8685 21.1032 22.0275L21.368 21.5774C21.1032 21.3655 20.8385 21.2861 20.4679 21.2861C19.6471 21.2861 19.1176 21.8421 19.1176 22.6099ZM24.2539 22.6099V21.3391H23.6979V21.6567C23.5125 21.4186 23.2478 21.2861 22.9036 21.2861C22.1888 21.2861 21.6328 21.8421 21.6328 22.6099C21.6328 23.3776 22.1888 23.9336 22.9036 23.9336C23.2742 23.9336 23.539 23.8013 23.6979 23.563V23.8807H24.2539V22.6099ZM22.2152 22.6099C22.2152 22.1598 22.5064 21.7892 22.9829 21.7892C23.433 21.7892 23.7508 22.1334 23.7508 22.6099C23.7508 23.06 23.433 23.4306 22.9829 23.4306C22.5064 23.404 22.2152 23.06 22.2152 22.6099ZM15.57 21.2861C14.8286 21.2861 14.299 21.8156 14.299 22.6099C14.299 23.4042 14.8285 23.9336 15.5964 23.9336C15.967 23.9336 16.3377 23.8277 16.629 23.5895L16.3641 23.1924C16.1524 23.3512 15.8876 23.4571 15.6229 23.4571C15.2787 23.4571 14.9345 23.2983 14.855 22.8481H16.7349V22.6364C16.7614 21.8156 16.2849 21.2861 15.57 21.2861ZM15.57 21.7626C15.914 21.7626 16.1525 21.9745 16.2053 22.3717H14.8816C14.9345 22.0275 15.1728 21.7626 15.57 21.7626ZM29.3636 22.6099V20.333H28.8076V21.6567C28.6222 21.4186 28.3575 21.2861 28.0133 21.2861C27.2985 21.2861 26.7425 21.8421 26.7425 22.6099C26.7425 23.3776 27.2985 23.9336 28.0133 23.9336C28.384 23.9336 28.6488 23.8013 28.8076 23.563V23.8807H29.3636V22.6099ZM27.325 22.6099C27.325 22.1598 27.6162 21.7892 28.0928 21.7892C28.5429 21.7892 28.8605 22.1334 28.8605 22.6099C28.8605 23.06 28.5429 23.4306 28.0928 23.4306C27.6162 23.404 27.325 23.06 27.325 22.6099ZM8.73925 22.6099V21.3391H8.18327V21.6567C7.9979 21.4186 7.73318 21.2861 7.38898 21.2861C6.67416 21.2861 6.11818 21.8421 6.11818 22.6099C6.11818 23.3776 6.67416 23.9336 7.38898 23.9336C7.75971 23.9336 8.02443 23.8013 8.18327 23.563V23.8807H8.73925V22.6099ZM6.67416 22.6099C6.67416 22.1598 6.96542 21.7892 7.44192 21.7892C7.89201 21.7892 8.2098 22.1334 8.2098 22.6099C8.2098 23.06 7.89201 23.4306 7.44192 23.4306C6.96542 23.404 6.67416 23.06 6.67416 22.6099Z" fill="black"/>
<path d="M11.2549 2.03857H19.5946V17.0236H11.2549V2.03857Z" fill="#FF5F00"/>
<path d="M11.7845 9.53114C11.7845 6.48651 13.2141 3.78597 15.4115 2.03855C13.7967 0.767759 11.7581 0 9.53419 0C4.2654 0 0.00292969 4.26247 0.00292969 9.53114C0.00292969 14.7997 4.2654 19.0623 9.53407 19.0623C11.758 19.0623 13.7965 18.2945 15.4115 17.0236C13.2141 15.3027 11.7845 12.5758 11.7845 9.53114Z" fill="#EB001B"/>
<path d="M30.8461 9.53114C30.8461 14.7997 26.5836 19.0623 21.315 19.0623C19.091 19.0623 17.0525 18.2945 15.4375 17.0236C17.6614 15.2763 19.0646 12.5758 19.0646 9.53114C19.0646 6.48651 17.6349 3.78597 15.4375 2.03855C17.0524 0.767759 19.091 0 21.315 0C26.5836 0 30.8461 4.28901 30.8461 9.53114Z" fill="#F79E1B"/>
</g>
<defs>
<clipPath id="clip0_1014_748">
<rect width="30.88" height="24" fill="white"/>
</clipPath>
</defs>
</svg>
