<svg width="22" height="30" viewBox="0 0 22 30" fill="none" xmlns="http://www.w3.org/2000/svg">
<path d="M11.0308 4.20947C6.90428 4.20947 3.55069 7.56307 3.55069 11.6896V15.2926C3.55069 16.0531 3.22655 17.2125 2.84007 17.8608L1.40638 20.242C0.52123 21.713 1.13211 23.3462 2.7528 23.8948C8.12604 25.69 13.9231 25.69 19.2964 23.8948C20.8049 23.3961 21.4656 21.6133 20.6428 20.242L19.2091 17.8608C18.8351 17.2125 18.511 16.0531 18.511 15.2926V11.6896C18.511 7.57553 15.1449 4.20947 11.0308 4.20947Z" fill="white" stroke="#292D32" stroke-opacity="0.63" stroke-width="2" stroke-miterlimit="10" stroke-linecap="round"/>
<path d="M13.3374 4.57083C12.9509 4.45863 12.5519 4.37136 12.1405 4.32149C10.9437 4.17189 9.79676 4.25916 8.72461 4.57083C9.08615 3.64828 9.98377 3 11.031 3C12.0782 3 12.9758 3.64828 13.3374 4.57083Z" fill="white" stroke="#292D32" stroke-opacity="0.63" stroke-width="2" stroke-miterlimit="10" stroke-linecap="round" stroke-linejoin="round"/>
<g opacity="0.4">
<path d="M14.7701 24.3435C14.7701 26.4005 13.0871 28.0836 11.0301 28.0836C10.0078 28.0836 9.0603 27.6597 8.38713 26.9865C7.71391 26.3133 7.29004 25.3658 7.29004 24.3435" fill="white"/>
<path d="M14.7701 24.3435C14.7701 26.4005 13.0871 28.0836 11.0301 28.0836C10.0078 28.0836 9.0603 27.6597 8.38713 26.9865C7.71391 26.3133 7.29004 25.3658 7.29004 24.3435" stroke="#292D32" stroke-opacity="0.9" stroke-width="2" stroke-miterlimit="10"/>
</g>
<circle cx="17" cy="5" r="5" fill="#B90D0D" fill-opacity="0.9"/>
</svg>