<svg width="535" height="658" viewBox="0 0 535 658" fill="none" xmlns="http://www.w3.org/2000/svg">
<path d="M525.287 114.661L186.252 3.51525C181.713 2.02718 176.827 4.5006 175.339 9.03977L3.8294 532.208C2.34134 536.747 4.81475 541.633 9.35392 543.121L348.389 654.267C352.928 655.755 357.814 653.281 359.302 648.742L530.812 125.574C532.3 121.035 529.826 116.149 525.287 114.661Z" fill="white"/>
<path d="M515.658 141.938L176.52 30.7587C171.981 29.2706 167.094 31.744 165.606 36.2832L94.8656 252.069C93.3775 256.609 95.8509 261.495 100.39 262.983L439.529 374.162C444.068 375.65 448.954 373.177 450.442 368.637L521.183 152.851C522.671 148.312 520.197 143.426 515.658 141.938Z" fill="#F5F5F5"/>
<path d="M170.868 322.413C169.442 321.946 167.906 322.723 167.439 324.149C166.971 325.576 167.748 327.111 169.175 327.579L173.255 328.916C173.769 329.085 174.049 329.638 173.88 330.151C173.712 330.665 173.159 330.944 172.646 330.776L169.047 329.596C167.354 329.041 165.532 329.964 164.977 331.656L164.328 333.637C164.132 334.236 163.487 334.562 162.888 334.366C162.289 334.169 161.962 333.524 162.159 332.925L165.015 324.213C165.985 321.255 169.168 319.644 172.125 320.613L176.482 322.042C177.033 322.222 177.334 322.816 177.153 323.368C176.972 323.919 176.378 324.22 175.827 324.039L170.868 322.413Z" fill="#263238"/>
<path d="M175.684 332.268C176.052 331.075 176.767 330.019 177.737 329.234C178.708 328.449 179.89 327.971 181.133 327.86C182.376 327.749 183.624 328.011 184.718 328.612C185.812 329.213 186.703 330.126 187.276 331.234C187.85 332.343 188.08 333.597 187.938 334.837C187.796 336.077 187.289 337.247 186.48 338.198C185.671 339.148 184.597 339.837 183.396 340.175C182.195 340.514 180.92 340.487 179.733 340.098C178.936 339.876 178.194 339.493 177.551 338.971C176.909 338.449 176.382 337.801 176.002 337.066C175.621 336.331 175.397 335.526 175.342 334.7C175.288 333.874 175.404 333.047 175.684 332.268ZM185.515 335.491C185.73 334.721 185.714 333.905 185.469 333.144C185.224 332.384 184.761 331.712 184.137 331.212C183.513 330.713 182.756 330.407 181.96 330.334C181.164 330.262 180.365 330.424 179.66 330.802C178.956 331.18 178.379 331.757 177.999 332.46C177.62 333.164 177.456 333.963 177.528 334.759C177.599 335.555 177.903 336.313 178.402 336.937C178.9 337.562 179.571 338.027 180.332 338.273C180.854 338.459 181.409 338.534 181.962 338.492C182.514 338.45 183.052 338.293 183.54 338.031C184.029 337.769 184.457 337.408 184.797 336.97C185.137 336.533 185.382 336.029 185.515 335.491Z" fill="#263238"/>
<path d="M197.638 332.986C198.197 333.102 198.457 333.707 198.28 334.25L198.09 334.827C198.003 335.093 197.716 335.238 197.45 335.151C196.955 334.956 196.422 334.873 195.891 334.907C195.36 334.941 194.842 335.092 194.376 335.349C193.909 335.605 193.505 335.962 193.192 336.392C192.879 336.823 192.665 337.317 192.564 337.84L191.032 342.515C190.843 343.09 190.224 343.404 189.648 343.215C189.073 343.026 188.76 342.407 188.948 341.832L192.05 332.37C192.231 331.819 192.824 331.518 193.376 331.699L193.942 331.884C194.181 331.963 194.311 332.22 194.233 332.459C194.091 332.892 194.667 333.328 195.094 333.172C195.411 333.056 195.741 332.974 196.079 332.93C196.601 332.86 197.128 332.88 197.638 332.986Z" fill="#263238"/>
<path d="M211.001 337.468C211.538 337.649 211.829 338.229 211.652 338.768L208.726 347.696C207.394 351.759 204.746 352.913 200.855 351.637C199.14 351.157 197.616 350.172 196.477 348.82C196.154 348.438 196.234 347.874 196.615 347.55C197.06 347.172 197.732 347.271 198.124 347.704C199.002 348.671 200.126 349.394 201.384 349.789C204.088 350.675 205.739 349.825 206.592 347.225C206.697 346.903 206.338 346.598 206.019 346.712C205.558 346.877 205.075 346.981 204.583 347.019C203.772 347.083 202.956 346.967 202.194 346.679C201.425 346.474 200.706 346.114 200.081 345.621C199.456 345.128 198.938 344.513 198.559 343.813C198.18 343.113 197.947 342.343 197.876 341.55C197.805 340.757 197.896 339.958 198.144 339.202C198.392 338.445 198.791 337.748 199.318 337.151C199.845 336.554 200.488 336.071 201.208 335.732C201.928 335.392 202.71 335.203 203.505 335.176C204.301 335.148 205.093 335.284 205.835 335.574C206.652 335.801 207.404 336.216 208.032 336.786C208.329 337.056 208.594 337.357 208.824 337.683C209.08 338.048 209.726 338.014 209.865 337.59C209.947 337.339 210.218 337.203 210.468 337.288L211.001 337.468ZM208.162 342.553C208.424 341.528 208.287 340.442 207.779 339.514C207.27 338.587 206.428 337.888 205.423 337.558C204.418 337.229 203.325 337.294 202.366 337.74C201.407 338.186 200.653 338.981 200.258 339.962C199.996 340.986 200.133 342.073 200.641 343C201.15 343.928 201.992 344.627 202.997 344.957C204.002 345.286 205.095 345.221 206.054 344.775C207.013 344.328 207.766 343.534 208.162 342.553Z" fill="#263238"/>
<path d="M212.996 344.5C213.364 343.307 214.079 342.251 215.05 341.466C216.02 340.681 217.202 340.203 218.445 340.092C219.689 339.981 220.937 340.243 222.031 340.844C223.125 341.445 224.015 342.358 224.589 343.466C225.162 344.575 225.393 345.829 225.251 347.069C225.109 348.309 224.601 349.479 223.792 350.43C222.983 351.38 221.91 352.069 220.708 352.407C219.507 352.745 218.232 352.719 217.046 352.33C216.249 352.108 215.506 351.725 214.864 351.203C214.222 350.681 213.694 350.033 213.314 349.298C212.934 348.563 212.71 347.758 212.655 346.932C212.6 346.106 212.716 345.278 212.996 344.5ZM222.828 347.723C223.043 346.953 223.027 346.137 222.782 345.376C222.537 344.616 222.073 343.944 221.45 343.444C220.826 342.945 220.069 342.639 219.273 342.566C218.477 342.493 217.677 342.656 216.973 343.034C216.269 343.412 215.691 343.989 215.312 344.692C214.933 345.396 214.769 346.195 214.84 346.991C214.912 347.787 215.216 348.545 215.714 349.169C216.213 349.794 216.884 350.259 217.644 350.505C218.166 350.691 218.722 350.766 219.274 350.724C219.827 350.682 220.365 350.525 220.853 350.263C221.341 350.001 221.769 349.64 222.109 349.202C222.449 348.765 222.694 348.261 222.828 347.723Z" fill="#263238"/>
<path d="M232.533 355.873C232.573 356.259 232.343 356.632 231.96 356.699C231.323 356.811 230.667 356.774 230.044 356.59C229.896 356.547 229.746 356.506 229.597 356.465C229.175 356.349 228.778 356.153 228.428 355.888C228.016 355.575 227.679 355.174 227.444 354.714C227.208 354.254 227.079 353.747 227.066 353.23C227.053 352.713 227.157 352.2 227.37 351.729L229.114 346.408C229.292 345.866 228.996 345.283 228.454 345.105L228.334 345.066C227.858 344.91 227.599 344.398 227.755 343.923C227.911 343.447 228.423 343.188 228.898 343.344L229.053 343.395C229.614 343.579 230.218 343.273 230.402 342.712L230.554 342.247C230.741 341.676 231.356 341.365 231.926 341.552C232.497 341.74 232.808 342.354 232.621 342.924L232.547 343.148C232.32 343.842 232.698 344.59 233.392 344.817L234.563 345.201C235.038 345.357 235.297 345.869 235.142 346.344C234.986 346.82 234.474 347.079 233.998 346.923L233.215 346.666C232.307 346.368 231.329 346.863 231.032 347.771L229.533 352.343C229.424 352.576 229.366 352.83 229.363 353.087C229.36 353.344 229.411 353.6 229.514 353.835C229.617 354.071 229.77 354.283 229.961 354.455C230.152 354.627 230.377 354.757 230.623 354.836C230.868 354.917 231.122 354.964 231.377 354.974C231.918 354.997 232.476 355.334 232.533 355.873Z" fill="#263238"/>
<path d="M254.476 358.098C254.263 358.888 253.887 359.624 253.373 360.26C252.859 360.896 252.217 361.418 251.49 361.791C250.762 362.165 249.965 362.383 249.148 362.43C248.332 362.478 247.514 362.354 246.748 362.067C245.974 361.839 245.264 361.432 244.677 360.878C244.104 360.338 242.864 360.422 242.618 361.171L241.763 363.779C241.574 364.355 240.955 364.668 240.38 364.48C239.804 364.291 239.491 363.672 239.68 363.096L244.153 349.451C244.334 348.899 244.928 348.599 245.479 348.78L246.023 348.958C246.274 349.04 246.411 349.31 246.329 349.561C246.186 349.997 246.719 350.423 247.153 350.275C247.481 350.163 247.822 350.084 248.169 350.041C248.99 349.938 249.823 350.035 250.598 350.324C251.385 350.546 252.117 350.931 252.747 351.452C253.377 351.974 253.891 352.622 254.256 353.353C254.621 354.085 254.829 354.885 254.867 355.702C254.905 356.519 254.772 357.335 254.476 358.098ZM252.375 357.409C252.59 356.64 252.574 355.825 252.33 355.065C252.085 354.305 251.623 353.633 251 353.133C250.378 352.633 249.622 352.327 248.827 352.253C248.032 352.179 247.233 352.34 246.528 352.716C245.824 353.092 245.246 353.667 244.865 354.368C244.484 355.07 244.318 355.868 244.387 356.664C244.455 357.459 244.756 358.217 245.252 358.843C245.747 359.469 246.416 359.936 247.174 360.186C247.697 360.372 248.253 360.446 248.807 360.405C249.36 360.364 249.899 360.208 250.388 359.946C250.878 359.685 251.307 359.324 251.649 358.888C251.992 358.451 252.239 357.947 252.375 357.409Z" fill="#263238"/>
<path d="M266.728 360.799L264.798 366.688C264.617 367.239 264.023 367.54 263.471 367.359L262.849 367.155C262.641 367.087 262.528 366.863 262.596 366.656C262.715 366.293 262.27 365.941 261.911 366.072C261.575 366.195 261.223 366.278 260.864 366.318C260.106 366.403 259.339 366.294 258.634 366.002C256.034 365.15 254.856 363.219 255.527 361.17C256.199 359.121 257.816 358.202 261.225 359.319L264.239 360.307C264.457 360.379 264.693 360.26 264.765 360.041C265.329 358.319 264.64 356.93 262.591 356.258C261.621 355.925 260.587 355.845 259.587 356.017C259.035 356.113 258.462 355.793 258.356 355.243C258.269 354.794 258.528 354.344 258.974 354.244C260.449 353.913 261.994 354.009 263.425 354.53C266.484 355.552 267.761 357.648 266.728 360.799ZM263.563 363.561C263.549 363.563 263.538 363.55 263.542 363.537L263.857 362.576C263.968 362.238 263.784 361.874 263.446 361.764L260.855 360.914C258.789 360.237 257.938 360.854 257.639 361.767C257.34 362.679 257.976 363.937 259.561 364.456C260.244 364.755 261.006 364.829 261.734 364.667C262.446 364.508 263.091 364.132 263.579 363.592C263.591 363.579 263.58 363.558 263.563 363.561Z" fill="#263238"/>
<path d="M267.853 368.027C267.489 367.664 267.521 367.081 267.883 366.716C268.304 366.29 268.999 366.33 269.439 366.737C270.261 367.497 271.24 368.075 272.312 368.427C274.241 369.059 275.225 368.733 275.541 367.769C276.387 365.186 268.405 365.048 269.906 360.468C270.578 358.419 272.877 357.628 275.822 358.594C276.99 358.955 278.065 359.557 278.982 360.355C279.377 360.7 279.353 361.305 278.97 361.664C278.568 362.04 277.937 361.995 277.522 361.634C276.856 361.055 276.074 360.62 275.223 360.362C273.398 359.763 272.3 360.147 272.001 361.059C271.114 363.763 279.103 363.941 277.641 368.4C276.958 370.484 274.618 371.223 271.553 370.218C270.151 369.807 268.88 369.052 267.853 368.027Z" fill="#263238"/>
<path d="M278.701 371.583C278.337 371.221 278.37 370.637 278.731 370.272C279.153 369.846 279.848 369.886 280.288 370.293C281.109 371.054 282.088 371.632 283.161 371.983C285.089 372.615 286.073 372.289 286.389 371.325C287.236 368.742 279.253 368.604 280.755 364.024C281.426 361.975 283.726 361.185 286.67 362.15C287.838 362.512 288.914 363.113 289.83 363.911C290.226 364.256 290.201 364.862 289.818 365.221C289.417 365.597 288.785 365.551 288.37 365.19C287.705 364.611 286.923 364.176 286.072 363.918C284.247 363.319 283.148 363.703 282.849 364.616C281.963 367.319 289.952 367.497 288.49 371.957C287.807 374.04 285.467 374.779 282.402 373.775C281 373.363 279.729 372.608 278.701 371.583Z" fill="#263238"/>
<path d="M309.762 369.853C310.359 370.049 310.577 370.78 310.185 371.271L303.608 379.495C303.211 379.991 302.548 380.188 301.945 379.991C301.346 379.794 300.93 379.249 300.899 378.62L300.849 377.628C300.714 374.921 297.318 373.798 295.595 375.891L294.951 376.674C294.551 377.16 293.893 377.351 293.295 377.155C292.69 376.957 292.272 376.405 292.244 375.769L291.791 365.393C291.76 364.691 292.441 364.175 293.109 364.394C293.51 364.525 293.786 364.893 293.8 365.315L293.848 366.72C293.944 369.515 297.461 370.688 299.215 368.509L299.993 367.542C300.335 367.118 300.903 366.949 301.421 367.119C301.939 367.289 302.298 367.762 302.321 368.307L302.372 369.528C302.492 372.363 306.063 373.534 307.838 371.32L308.78 370.146C309.014 369.853 309.406 369.737 309.762 369.853Z" fill="#263238"/>
<path d="M309.763 376.223C310.133 375.036 310.848 373.986 311.816 373.207C312.784 372.427 313.962 371.953 315.2 371.844C316.439 371.736 317.681 371.998 318.77 372.597C319.86 373.196 320.746 374.105 321.317 375.209C321.888 376.314 322.118 377.563 321.978 378.798C321.837 380.033 321.333 381.198 320.529 382.146C319.725 383.094 318.657 383.781 317.461 384.121C316.265 384.46 314.995 384.437 313.813 384.053C313.016 383.831 312.273 383.448 311.631 382.926C310.989 382.404 310.461 381.756 310.081 381.021C309.701 380.286 309.477 379.481 309.422 378.655C309.367 377.83 309.483 377.002 309.763 376.223ZM319.578 379.44C319.788 378.674 319.768 377.862 319.522 377.107C319.275 376.351 318.812 375.685 318.19 375.19C317.567 374.695 316.814 374.394 316.022 374.324C315.23 374.254 314.435 374.417 313.736 374.795C313.036 375.172 312.463 375.747 312.087 376.447C311.711 377.147 311.549 377.943 311.621 378.734C311.693 379.526 311.996 380.279 312.492 380.9C312.988 381.521 313.655 381.983 314.411 382.228C314.933 382.414 315.487 382.488 316.039 382.446C316.591 382.404 317.128 382.247 317.615 381.984C318.102 381.721 318.528 381.359 318.867 380.921C319.205 380.483 319.447 379.978 319.578 379.44Z" fill="#263238"/>
<path d="M331.694 376.942C332.255 377.054 332.518 377.659 332.34 378.203L332.152 378.776C332.065 379.043 331.778 379.188 331.512 379.1C331.016 378.906 330.484 378.822 329.953 378.856C329.421 378.89 328.904 379.041 328.438 379.298C327.971 379.555 327.567 379.911 327.254 380.341C326.941 380.772 326.726 381.266 326.626 381.789L325.085 386.49C324.901 387.051 324.297 387.357 323.736 387.173C323.175 386.989 322.869 386.385 323.053 385.824L326.166 376.328C326.345 375.781 326.934 375.483 327.481 375.662L328.037 375.845C328.277 375.923 328.407 376.181 328.329 376.42C328.187 376.853 328.762 377.29 329.19 377.134C329.502 377.02 329.826 376.94 330.157 376.895C330.671 376.825 331.19 376.842 331.694 376.942Z" fill="#263238"/>
<path d="M346.356 376.778C346.932 376.966 347.245 377.586 347.056 378.161L342.459 392.185C342.278 392.737 341.684 393.037 341.133 392.857L340.586 392.677C340.336 392.595 340.2 392.327 340.282 392.078C340.425 391.642 339.886 391.214 339.452 391.365C339.125 391.479 338.785 391.56 338.439 391.605C337.612 391.713 336.772 391.616 335.991 391.324C334.518 390.75 333.32 389.635 332.644 388.205C331.969 386.776 331.867 385.142 332.359 383.64C332.852 382.138 333.901 380.882 335.292 380.13C336.682 379.378 338.308 379.187 339.835 379.598C340.61 379.821 341.322 380.223 341.914 380.772C342.499 381.314 343.745 381.224 343.993 380.466L344.973 377.478C345.162 376.903 345.781 376.589 346.356 376.778ZM341.945 386.773C342.16 386.003 342.144 385.187 341.899 384.426C341.654 383.666 341.191 382.994 340.567 382.494C339.943 381.994 339.186 381.689 338.39 381.616C337.594 381.543 336.794 381.706 336.09 382.084C335.386 382.462 334.808 383.039 334.429 383.742C334.05 384.446 333.886 385.245 333.958 386.041C334.029 386.837 334.333 387.595 334.832 388.219C335.33 388.844 336.001 389.308 336.761 389.555C337.284 389.741 337.839 389.815 338.391 389.774C338.944 389.732 339.482 389.575 339.97 389.313C340.458 389.051 340.886 388.69 341.227 388.252C341.567 387.815 341.811 387.311 341.945 386.773Z" fill="#263238"/>
<path d="M356.499 385.538C356.95 384.16 356.124 382.841 354.161 382.197C353.439 381.915 352.659 381.809 351.888 381.888C351.432 381.934 350.987 382.044 350.564 382.213C350.07 382.411 349.476 382.313 349.161 381.884C348.815 381.414 348.938 380.744 349.472 380.51C350.16 380.208 350.894 380.017 351.647 379.947C352.759 379.844 353.879 380.007 354.915 380.423C358.031 381.444 359.606 383.562 358.816 385.973C357.798 389.078 354.781 388.758 353.359 390.405C352.945 390.884 352.315 391.241 351.713 391.043C351.115 390.847 350.77 390.189 351.113 389.662C352.588 387.402 355.774 387.747 356.499 385.538ZM349.247 395.026C348.976 394.449 349.22 393.704 349.781 393.399C349.817 393.379 349.855 393.361 349.893 393.344C350.228 393.197 350.605 393.179 350.953 393.293C351.3 393.407 351.594 393.645 351.777 393.962C351.798 393.998 351.817 394.035 351.835 394.073C352.106 394.65 351.862 395.395 351.301 395.699C351.265 395.719 351.227 395.737 351.189 395.754C350.854 395.901 350.477 395.919 350.129 395.805C349.782 395.691 349.488 395.453 349.305 395.137C349.284 395.1 349.265 395.063 349.247 395.026Z" fill="#263238"/>
<path d="M385.899 441.971C385.815 442.229 324.834 422.448 249.728 397.826C174.621 373.204 113.765 353.043 113.849 352.785C113.934 352.527 174.897 372.303 250.021 396.93C325.145 421.558 385.978 441.73 385.899 441.971Z" fill="black"/>
<path d="M323.052 437.481C322.973 437.722 288.003 426.487 244.94 412.369C201.877 398.252 167.026 386.598 167.105 386.357C167.184 386.116 202.171 397.357 245.234 411.474C288.297 425.591 323.153 437.171 323.052 437.481Z" fill="black"/>
<path d="M358.912 245.029C366.348 241.583 372.664 236.113 377.136 229.245C381.607 222.377 384.054 214.388 384.196 206.193C384.338 197.998 382.169 189.93 377.937 182.911C373.706 175.892 367.583 170.206 360.27 166.506C352.957 162.805 344.75 161.239 336.589 161.987C328.427 162.735 320.641 165.766 314.122 170.734C307.604 175.702 302.616 182.405 299.73 190.076C297.65 195.606 296.723 201.478 296.978 207.334C297.152 211.336 295.242 215.297 291.608 216.98L290.239 217.614C288.079 218.615 286.546 220.61 286.137 222.956L286.032 223.562C285.183 228.43 279.62 230.83 275.496 228.107C273.512 226.797 270.991 226.608 268.833 227.608L261.933 230.806C259.797 231.796 258.287 233.776 257.895 236.097L257.804 236.642C256.986 241.496 251.432 243.89 247.341 241.151C245.376 239.834 242.867 239.637 240.72 240.63L234.442 243.534C233.119 244.146 232.181 245.367 231.929 246.802L231.853 247.232C231.333 250.195 227.938 251.645 225.438 249.971C224.23 249.163 222.688 249.043 221.369 249.655L219.463 250.541C217.631 251.392 216.194 252.913 215.449 254.791L214.214 257.903C212.679 261.77 214.115 266.182 217.632 268.405L225.324 273.267C227.806 274.836 230.916 275.038 233.581 273.803L306.067 240.221C309.215 238.763 312.887 239.394 315.742 241.365C321.179 245.116 327.419 247.599 333.999 248.595C342.474 249.878 351.138 248.637 358.912 245.029ZM369.427 192.013C370.469 194.26 370.822 196.766 370.44 199.213C370.058 201.661 368.959 203.94 367.282 205.763C365.604 207.585 363.424 208.869 361.016 209.452C358.609 210.035 356.082 209.891 353.757 209.038C351.431 208.185 349.411 206.661 347.952 204.659C346.492 202.658 345.66 200.268 345.559 197.793C345.458 195.318 346.093 192.869 347.385 190.755C348.676 188.641 350.565 186.958 352.814 185.918C355.825 184.526 359.266 184.385 362.381 185.528C365.496 186.671 368.03 189.003 369.427 192.013Z" fill="#263238"/>
<path d="M369.235 191.206C369.468 191.716 369.268 191.726 368.953 191.263C368.662 190.833 368.228 190.236 367.634 189.518C365.823 187.434 363.381 185.997 360.68 185.427C358.491 184.962 356.216 185.116 354.11 185.871C352.003 186.626 350.149 187.953 348.754 189.703C347.359 191.452 346.479 193.556 346.212 195.777C345.946 197.999 346.303 200.251 347.244 202.281C348.185 204.311 349.673 206.039 351.54 207.272C353.408 208.504 355.582 209.192 357.819 209.258C360.055 209.325 362.266 208.767 364.204 207.648C366.141 206.528 367.729 204.892 368.789 202.921C370.113 200.498 370.593 197.704 370.153 194.978C369.857 192.974 369.325 192.037 369.434 191.996C369.542 191.955 369.607 192.224 369.832 192.699C370.168 193.386 370.423 194.11 370.594 194.855C371.215 197.689 370.825 200.651 369.489 203.227C368.702 204.761 367.614 206.122 366.291 207.228C364.967 208.334 363.435 209.164 361.785 209.667C360.135 210.17 358.401 210.336 356.686 210.157C354.97 209.977 353.308 209.455 351.799 208.621C349.36 207.295 347.414 205.219 346.248 202.7C345.081 200.181 344.757 197.354 345.323 194.637C345.663 192.947 346.339 191.343 347.31 189.919C348.282 188.495 349.529 187.281 350.978 186.347C352.427 185.414 354.049 184.781 355.747 184.486C357.446 184.191 359.186 184.24 360.865 184.63C363.7 185.278 366.219 186.899 367.982 189.213C368.479 189.824 368.9 190.493 369.235 191.206Z" fill="#263238"/>
<path d="M358.118 245.302C358.206 245.272 358.238 245.351 358.153 245.387C358.143 245.391 358.134 245.395 358.124 245.399L355.735 246.523C352.6 247.727 349.341 248.577 346.017 249.058C339.723 249.881 333.324 249.327 327.264 247.436C321.28 245.568 315.765 242.44 311.093 238.262C311.053 238.226 311.09 238.161 311.142 238.178C311.185 238.192 311.188 238.252 311.147 238.271L229.379 276.322L229.329 276.35C229.211 276.417 229.071 276.431 228.943 276.389C228.905 276.377 228.869 276.36 228.836 276.339L211.142 265.176C210.927 265.05 210.829 264.791 210.907 264.555L210.909 264.547C212.477 260.579 214.186 256.239 215.935 251.835L216.006 251.617C216.047 251.492 216.136 251.389 216.253 251.329L223.291 248.068L223.348 248.039C223.472 247.976 223.616 247.966 223.749 248.009C223.794 248.024 223.838 248.045 223.878 248.072L230.701 252.64C230.86 252.746 230.837 252.988 230.66 253.062C230.484 253.135 230.297 252.987 230.329 252.799C230.788 250.13 231.305 247.232 231.831 244.253C231.836 244.228 231.842 244.204 231.85 244.18C231.896 244.038 232 243.922 232.136 243.862L232.168 243.847L244.02 238.35L244.1 238.31C244.224 238.247 244.369 238.236 244.501 238.279C244.547 238.294 244.59 238.315 244.63 238.342L256.084 246.012C256.244 246.119 256.222 246.36 256.046 246.437C255.868 246.515 255.675 246.363 255.709 246.172C256.503 241.661 257.342 236.854 258.198 231.997C258.202 231.972 258.208 231.948 258.216 231.923C258.266 231.772 258.38 231.65 258.529 231.591L258.558 231.58L262.205 229.877L272.341 225.191L272.422 225.151C272.546 225.088 272.69 225.077 272.823 225.12C272.868 225.135 272.911 225.156 272.951 225.183L284.411 232.85C284.574 232.96 284.551 233.207 284.369 233.284C284.189 233.359 283.996 233.206 284.03 233.013C284.87 228.239 285.7 223.514 286.519 218.84C286.524 218.814 286.53 218.788 286.539 218.762C286.585 218.621 286.685 218.504 286.817 218.437L286.862 218.415L297.588 213.447C297.685 213.402 297.785 213.504 297.738 213.6C297.69 213.698 297.546 213.679 297.525 213.572C296.236 206.805 296.538 199.829 298.409 193.197C299.302 189.931 300.589 186.786 302.242 183.832C303.824 180.912 305.741 178.187 307.955 175.712C313.545 169.45 320.809 164.916 328.89 162.645C336.971 160.374 345.533 160.46 353.567 162.893C361.601 165.327 368.772 170.006 374.235 176.379C379.698 182.753 383.225 190.555 384.401 198.867C385.49 206.702 384.435 214.686 381.347 221.968C379.08 227.409 375.716 232.323 371.465 236.406C371.037 236.838 370.621 237.235 370.205 237.633L368.932 238.665C368.087 239.322 367.334 240.048 366.575 240.504C365.015 241.48 363.759 242.403 362.622 243.022L359.805 244.635C359.719 244.674 359.676 244.589 359.759 244.543L362.267 243.173C363.359 242.577 364.672 241.654 366.134 240.627C366.882 240.09 367.601 239.41 368.423 238.764C368.839 238.424 369.256 238.084 369.684 237.71L370.921 236.494C375.069 232.435 378.357 227.582 380.59 222.224C382.823 216.867 383.955 211.115 383.918 205.311C383.881 199.508 382.677 193.771 380.377 188.442C378.077 183.113 374.727 178.302 370.529 174.295C366.33 170.288 361.368 167.167 355.938 165.118C350.508 163.068 344.721 162.133 338.921 162.367C333.122 162.601 327.429 164 322.182 166.481C316.935 168.961 312.241 172.472 308.379 176.805C306.224 179.229 304.353 181.891 302.803 184.74C301.202 187.632 299.952 190.705 299.078 193.892C297.25 200.459 296.992 207.364 298.324 214.049C298.369 214.288 298.246 214.528 298.026 214.631L298.017 214.635L287.242 219.639C287.184 219.666 287.129 219.598 287.167 219.547C287.206 219.496 287.287 219.531 287.276 219.594C286.451 224.324 285.605 229.134 284.739 234.023C284.677 234.406 284.24 234.599 283.914 234.387L283.899 234.376L272.24 226.57C272.18 226.529 272.213 226.435 272.285 226.441C272.358 226.446 272.375 226.545 272.309 226.575L262.418 231.148L259.029 232.702C258.97 232.729 258.913 232.659 258.952 232.606C258.992 232.553 259.077 232.589 259.065 232.655C258.195 237.595 257.337 242.497 256.537 247.05C256.472 247.442 256.024 247.638 255.691 247.421L244.028 239.59C243.969 239.551 244.001 239.459 244.071 239.464C244.142 239.47 244.16 239.565 244.095 239.595C240.188 241.421 236.318 243.202 232.726 244.868C232.667 244.895 232.611 244.824 232.652 244.773C232.693 244.724 232.772 244.76 232.761 244.823C232.223 247.824 231.691 250.804 231.203 253.599C231.134 253.973 230.701 254.152 230.385 253.941L223.35 249.225C223.294 249.188 223.324 249.1 223.391 249.105C223.459 249.109 223.477 249.202 223.414 249.23L216.924 252.232C216.888 252.249 216.855 252.203 216.882 252.174C216.91 252.145 216.958 252.175 216.943 252.213C215.263 256.443 213.605 260.607 212.091 264.438C212.05 264.54 211.904 264.535 211.871 264.43C211.837 264.326 211.952 264.238 212.044 264.296L229.322 275.216C229.373 275.249 229.348 275.329 229.287 275.326C229.225 275.323 229.208 275.238 229.265 275.212L311.046 237.479L311.13 237.443C311.205 237.41 311.29 237.406 311.367 237.432C311.413 237.447 311.454 237.471 311.489 237.503C316.112 241.707 321.584 244.869 327.536 246.774C333.51 248.686 339.827 249.288 346.055 248.536C349.349 248.113 352.591 247.348 355.727 246.254L358.118 245.302Z" fill="#263238"/>
<path d="M359.059 239.871C366.492 236.428 372.805 230.961 377.275 224.097C381.746 217.233 384.192 209.248 384.336 201.058C384.479 192.868 382.313 184.803 378.085 177.787C373.857 170.77 367.739 165.086 360.432 161.386C353.124 157.685 344.921 156.117 336.764 156.862C328.606 157.606 320.823 160.633 314.306 165.595C307.788 170.558 302.8 177.255 299.913 184.921C297.831 190.447 296.901 196.315 297.153 202.168C297.325 206.168 295.414 210.126 291.781 211.809L290.415 212.442C288.265 213.437 286.739 215.421 286.329 217.754L286.216 218.398C285.363 223.249 279.803 225.618 275.714 222.873C273.735 221.544 271.205 221.347 269.044 222.353L262.174 225.551C260.031 226.549 258.51 228.531 258.101 230.86L257.99 231.492C257.138 236.346 251.576 238.72 247.481 235.978C245.503 234.654 242.977 234.456 240.818 235.458L234.554 238.363C233.232 238.977 232.292 240.197 232.038 241.631L231.959 242.076C231.433 245.036 228.043 246.482 225.543 244.814C224.336 244.008 222.798 243.888 221.481 244.498L219.571 245.381C217.728 246.233 216.282 247.761 215.533 249.648L214.306 252.74C212.771 256.61 214.21 261.024 217.731 263.246L225.422 268.098C227.903 269.663 231.01 269.864 233.672 268.631L306.153 235.051C309.306 233.591 312.984 234.226 315.841 236.204C321.28 239.967 327.527 242.459 334.116 243.457C342.602 244.743 351.279 243.496 359.059 239.871ZM369.644 186.878C370.686 189.125 371.039 191.631 370.657 194.078C370.275 196.526 369.176 198.805 367.498 200.627C365.821 202.45 363.64 203.734 361.233 204.317C358.825 204.9 356.299 204.756 353.973 203.903C351.648 203.05 349.628 201.526 348.168 199.524C346.709 197.523 345.876 195.133 345.775 192.658C345.674 190.183 346.31 187.734 347.601 185.62C348.893 183.506 350.782 181.823 353.03 180.783C354.521 180.091 356.134 179.7 357.776 179.632C359.418 179.564 361.058 179.82 362.601 180.386C364.144 180.952 365.56 181.817 366.768 182.931C367.977 184.045 368.954 185.386 369.644 186.878Z" fill="#FFC727"/>
<path d="M369.359 186.117C369.572 186.564 369.482 186.592 369.205 186.182C368.913 185.749 368.469 185.131 367.849 184.383C366.075 182.262 363.644 180.793 360.94 180.211C358.756 179.752 356.487 179.909 354.387 180.666C352.287 181.422 350.438 182.748 349.049 184.495C347.659 186.242 346.783 188.341 346.518 190.557C346.253 192.773 346.61 195.02 347.548 197.045C348.487 199.07 349.971 200.794 351.833 202.025C353.696 203.255 355.864 203.943 358.095 204.011C360.326 204.08 362.533 203.526 364.467 202.412C366.402 201.299 367.988 199.669 369.049 197.705C370.37 195.279 370.845 192.482 370.397 189.756C370.1 187.752 369.586 186.821 369.677 186.775C369.769 186.728 369.85 187.003 370.093 187.483C370.422 188.169 370.672 188.891 370.837 189.634C371.463 192.474 371.07 195.443 369.727 198.023C368.938 199.553 367.85 200.911 366.528 202.015C365.206 203.119 363.676 203.947 362.029 204.45C360.382 204.953 358.651 205.121 356.937 204.945C355.224 204.768 353.564 204.251 352.054 203.422C349.608 202.122 347.646 200.069 346.457 197.568C345.268 195.066 344.916 192.248 345.452 189.531C345.797 187.843 346.476 186.242 347.448 184.821C348.421 183.399 349.668 182.187 351.116 181.254C352.564 180.322 354.184 179.688 355.88 179.391C357.577 179.094 359.316 179.139 360.994 179.523C363.831 180.176 366.348 181.804 368.105 184.124C368.608 184.731 369.029 185.401 369.359 186.117Z" fill="#263238"/>
<path d="M358.238 240.124C358.343 240.091 358.387 240.202 358.287 240.247L355.931 241.267C352.794 242.465 349.536 243.315 346.214 243.803C339.916 244.623 333.515 244.068 327.453 242.176C321.465 240.308 315.948 237.179 311.272 233.001C311.232 232.965 311.27 232.9 311.321 232.917C311.364 232.931 311.368 232.99 311.326 233.009L229.575 271.066L229.505 271.098C229.392 271.149 229.264 271.155 229.147 271.117C229.108 271.104 229.071 271.087 229.036 271.065L211.327 259.897C211.123 259.763 211.035 259.506 211.111 259.274C212.679 255.307 214.405 250.972 216.137 246.562L216.144 246.539C216.183 246.423 216.269 246.328 216.382 246.28L223.288 243.072L223.361 243.039C223.487 242.982 223.629 242.974 223.76 243.017C223.808 243.032 223.853 243.054 223.895 243.082L230.706 247.628C230.866 247.735 230.844 247.976 230.668 248.053C230.49 248.13 230.298 247.979 230.332 247.788C230.803 245.127 231.303 242.23 231.829 239.256C231.833 239.231 231.839 239.207 231.847 239.183C231.893 239.041 231.997 238.925 232.133 238.864L232.189 238.839L244.017 233.354C244.186 233.268 244.388 233.282 244.545 233.389L244.556 233.397L256.058 241.099C256.222 241.209 256.198 241.456 256.016 241.532C255.836 241.608 255.643 241.454 255.677 241.262L258.155 227.126C258.16 227.098 258.167 227.07 258.175 227.043C258.225 226.892 258.332 226.768 258.473 226.696L258.504 226.681L262.163 225.001L272.282 220.309C272.451 220.224 272.653 220.237 272.81 220.345L272.821 220.352L284.323 228.055C284.487 228.164 284.463 228.411 284.282 228.488C284.101 228.564 283.908 228.41 283.942 228.217C284.783 223.442 285.612 218.717 286.432 214.043C286.436 214.017 286.442 213.992 286.45 213.968C286.5 213.817 286.614 213.695 286.762 213.636L286.792 213.625L297.503 208.663C297.602 208.617 297.703 208.723 297.652 208.82C297.602 208.916 297.46 208.895 297.44 208.789C296.147 202.018 296.449 195.038 298.322 188.401C299.222 185.138 300.509 181.994 302.154 179.036C303.739 176.118 305.656 173.394 307.867 170.917C314.771 163.093 324.233 157.981 334.561 156.496C344.889 155.011 355.408 157.25 364.237 162.811C373.065 168.373 379.626 176.895 382.746 186.851C385.866 196.808 385.341 207.55 381.264 217.155C378.995 222.594 375.632 227.509 371.383 231.593L370.123 232.82L368.85 233.852C368.005 234.509 367.252 235.235 366.51 235.697C364.95 236.673 363.694 237.596 362.557 238.215L359.933 239.471C359.834 239.521 359.794 239.447 359.891 239.393C359.895 239.39 359.9 239.388 359.904 239.385L362.39 238.027C363.481 237.431 364.795 236.508 366.257 235.48C366.999 234.961 367.735 234.287 368.562 233.624L369.818 232.586L371.044 231.348C375.201 227.265 378.483 222.379 380.691 216.986C384.592 207.556 385.032 197.05 381.933 187.327C378.834 177.604 372.395 169.29 363.756 163.858C355.117 158.425 344.834 156.224 334.728 157.643C324.622 159.062 315.344 164.01 308.535 171.612C306.386 174.039 304.521 176.703 302.976 179.553C301.367 182.441 300.117 185.515 299.251 188.706C297.419 195.269 297.155 202.172 298.48 208.856C298.535 209.097 298.415 209.343 298.191 209.448L287.399 214.447C287.341 214.474 287.285 214.405 287.324 214.354C287.363 214.303 287.445 214.338 287.434 214.402C286.619 219.135 285.775 223.939 284.902 228.813L284.9 228.825C284.836 229.206 284.397 229.392 284.078 229.172L272.363 221.325C272.305 221.286 272.336 221.194 272.406 221.199C272.477 221.204 272.495 221.3 272.43 221.33L262.546 225.927L259.11 227.504C259.052 227.531 258.997 227.462 259.036 227.411C259.075 227.36 259.156 227.395 259.145 227.459C258.29 232.409 257.42 237.295 256.614 241.869L256.612 241.881C256.548 242.262 256.109 242.448 255.791 242.229L244.115 234.416C244.055 234.376 244.087 234.281 244.16 234.287C244.232 234.293 244.25 234.391 244.184 234.422L232.804 239.686C232.748 239.712 232.695 239.645 232.733 239.596C232.77 239.548 232.848 239.582 232.837 239.643C232.3 242.643 231.791 245.61 231.307 248.332L231.305 248.346C231.235 248.722 230.802 248.904 230.484 248.692L223.449 243.976C223.393 243.939 223.423 243.851 223.49 243.855C223.559 243.86 223.576 243.952 223.514 243.981L217.039 246.989C217.001 247.007 216.967 246.96 216.995 246.929C217.023 246.898 217.074 246.929 217.058 246.969C215.38 251.194 213.719 255.367 212.196 259.173C212.155 259.275 212.009 259.27 211.976 259.165C211.942 259.061 212.058 258.972 212.15 259.03L229.421 269.967C229.473 269.999 229.447 270.079 229.386 270.077C229.324 270.074 229.307 269.989 229.364 269.963L311.145 232.23C311.267 232.177 311.409 232.201 311.507 232.291C316.148 236.508 321.64 239.68 327.613 241.592C333.585 243.503 339.898 244.111 346.126 243.373C349.425 242.948 352.672 242.185 355.815 241.096L358.189 240.139L358.238 240.124Z" fill="#263238"/>
<path d="M356.788 235.246C356.505 235.333 356.521 235.273 356.779 235.128C359.373 233.672 361.852 232.021 364.196 230.19C367.052 227.861 369.54 225.116 371.577 222.045C374.316 217.989 376.252 213.445 377.28 208.66C378.547 202.885 378.441 196.894 376.97 191.168C375.265 184.605 371.846 178.614 367.063 173.809C364.512 171.199 361.573 169.001 358.349 167.291C356.699 166.387 354.99 165.597 353.232 164.927C351.417 164.301 349.564 163.795 347.683 163.413C339.79 161.792 331.585 162.744 324.273 166.13C316.961 169.516 310.927 175.158 307.058 182.226C306.134 183.907 305.321 185.647 304.626 187.435C304.004 189.213 303.504 191.03 303.129 192.875C302.345 196.439 302.121 200.104 302.466 203.737C303.035 210.495 305.4 216.978 309.315 222.515C312.72 227.345 317.218 231.303 322.443 234.065C326.741 236.37 331.443 237.827 336.291 238.357C339.955 238.777 343.66 238.649 347.285 237.975C350.167 237.384 352.998 236.574 355.756 235.552C355.834 235.523 355.86 235.579 355.783 235.612L354.108 236.36C353.208 236.768 352.276 237.1 351.322 237.354C350.03 237.798 348.706 238.142 347.362 238.382C343.702 239.136 339.949 239.327 336.231 238.947C327.245 238.072 318.849 234.08 312.5 227.662C306.15 221.243 302.248 212.805 301.47 203.811C301.109 200.058 301.334 196.272 302.136 192.588C302.835 188.788 304.157 185.13 306.048 181.761C310.017 174.484 316.219 168.675 323.741 165.191C331.262 161.707 339.704 160.732 347.821 162.41C351.664 163.144 355.361 164.498 358.769 166.418C362.07 168.198 365.08 170.471 367.695 173.158C372.586 178.102 376.063 184.266 377.766 191.009C379.101 196.358 379.284 201.93 378.301 207.354C377.318 212.779 375.193 217.932 372.066 222.473C369.953 225.563 367.375 228.307 364.422 230.607C363.381 231.479 362.269 232.262 361.099 232.95C360.28 233.513 359.416 234.008 358.516 234.43L356.904 235.204C356.877 235.217 356.816 235.237 356.788 235.246Z" fill="#263238"/>
<path d="M364.292 205.413C364.205 205.385 365.446 204.8 367.204 203.336C369.688 201.238 371.396 198.366 372.051 195.18C372.55 192.853 372.454 190.438 371.771 188.157C371.089 185.877 369.842 183.806 368.147 182.135C366.178 180.148 363.658 178.798 360.914 178.257C358.76 177.828 356.536 177.904 354.417 178.481C352.298 179.057 350.342 180.117 348.702 181.577C347.062 183.038 345.784 184.859 344.968 186.898C344.152 188.937 343.82 191.137 343.999 193.326C344.221 195.849 345.096 198.272 346.537 200.355C347.814 202.168 349.49 203.663 351.435 204.726C354.293 206.284 357.592 206.835 360.801 206.29C363.062 205.906 364.234 205.299 364.292 205.413C364.349 205.527 364.017 205.609 363.457 205.864C362.634 206.254 361.766 206.54 360.871 206.713C358.066 207.306 355.149 207.07 352.475 206.034C349.802 204.999 347.487 203.208 345.812 200.88C344.133 198.566 343.146 195.821 342.967 192.967C342.789 190.113 343.426 187.267 344.804 184.761C346.351 181.917 348.774 179.647 351.714 178.288C354.653 176.93 357.951 176.555 361.12 177.219C364.07 177.807 366.774 179.271 368.877 181.421C370.773 183.364 372.115 185.779 372.762 188.415C373.443 191.198 373.306 194.117 372.369 196.824C371.431 199.53 369.731 201.908 367.475 203.672C366.745 204.232 365.951 204.701 365.109 205.071C364.601 205.343 364.297 205.453 364.292 205.413Z" fill="#263238"/>
<path d="M225.084 266.562C224.963 266.293 243.53 257.354 266.529 246.759C289.529 236.165 308.31 227.677 308.432 227.946C308.554 228.214 289.987 237.154 266.987 247.748C243.987 258.343 225.206 266.831 225.084 266.562Z" fill="#263238"/>
<path d="M259.803 186.947C260.236 186.481 261.018 186.669 261.18 187.284C261.492 188.423 262.121 189.449 262.994 190.244C263.469 190.67 263.29 191.457 262.674 191.626C261.529 191.931 260.496 192.559 259.698 193.434C259.271 193.906 258.489 193.711 258.321 193.097C258.013 191.958 257.383 190.93 256.507 190.138C256.036 189.711 256.231 188.93 256.844 188.761C257.987 188.461 259.017 187.83 259.803 186.947Z" fill="#E5B323"/>
<path d="M224.527 164.781C224.773 164.507 225.225 164.611 225.324 164.966C225.499 165.631 225.867 166.229 226.381 166.685C226.654 166.941 226.535 167.398 226.173 167.494C225.515 167.673 224.921 168.033 224.459 168.534C224.214 168.811 223.757 168.706 223.662 168.349C223.487 167.684 223.119 167.086 222.605 166.629L222.59 166.616C222.324 166.367 222.438 165.923 222.79 165.832C223.454 165.648 224.055 165.284 224.527 164.781Z" fill="#E5B323"/>
<path d="M324.054 269.927C324.299 269.655 324.748 269.763 324.842 270.117L324.846 270.129C325.038 270.787 325.403 271.38 325.903 271.849C326.176 272.095 326.072 272.548 325.718 272.646C325.053 272.821 324.454 273.189 323.998 273.703L323.991 273.711C323.737 273.983 323.283 273.871 323.184 273.513C323.009 272.849 322.651 272.249 322.149 271.782C321.872 271.537 321.977 271.079 322.334 270.984C322.999 270.809 323.598 270.442 324.054 269.927Z" fill="#FF725E"/>
<path d="M394.293 255.769C394.72 255.298 395.502 255.493 395.67 256.106C395.978 257.246 396.607 258.274 397.484 259.065C397.955 259.492 397.76 260.274 397.147 260.442C396.006 260.749 394.979 261.379 394.188 262.256C393.755 262.723 392.973 262.534 392.811 261.919C392.492 260.784 391.864 259.759 390.997 258.96C390.522 258.534 390.701 257.746 391.317 257.577C392.462 257.272 393.495 256.645 394.293 255.769Z" fill="#E5B323"/>
<path d="M402.017 206.205C402.738 205.412 404.052 205.737 404.329 206.773C404.85 208.687 405.904 210.414 407.368 211.754C408.16 212.465 407.834 213.774 406.806 214.049C404.891 214.582 403.163 215.64 401.819 217.105C401.098 217.898 399.783 217.573 399.507 216.538C398.985 214.623 397.931 212.896 396.468 211.556C395.675 210.835 396 209.521 397.035 209.244C398.95 208.723 400.677 207.669 402.017 206.205Z" fill="#E5B323"/>
<path d="M260.723 143.829C261.443 143.037 262.76 143.346 263.041 144.379C263.556 146.297 264.61 148.026 266.08 149.361C266.872 150.081 266.563 151.398 265.529 151.679C263.609 152.187 261.879 153.243 260.548 154.717C259.828 155.509 258.511 155.2 258.23 154.167C257.714 152.245 256.653 150.513 255.174 149.18C254.385 148.458 254.71 147.148 255.742 146.868C257.659 146.353 259.388 145.298 260.723 143.829Z" fill="#E5B323"/>
<path d="M337.731 531.898C337.576 531.871 337.559 531.977 337.715 532.006C338.389 532.216 339.083 532.36 339.785 532.437L341.11 532.643L342.663 532.733C345.375 532.908 348.097 532.627 350.716 531.902C356.456 530.358 361.494 526.895 364.992 522.09C366.408 520.121 367.539 517.963 368.353 515.678C368.748 514.473 369.16 513.216 369.566 511.976L370.084 510.048C370.293 509.411 370.312 508.712 370.418 508.041C370.791 505.216 370.708 502.349 370.169 499.551C368.918 493.305 365.392 487.746 360.276 483.951C357.484 481.933 354.354 480.429 351.034 479.51L340.6 476.089L117.767 403.191C112.408 401.439 106.621 401.506 101.305 403.381C98.7009 404.32 96.2569 405.654 94.0587 407.336C91.899 409.039 90.0267 411.078 88.5133 413.375C87.7627 414.518 87.0964 415.715 86.5198 416.955C86.0965 418.246 85.5009 419.481 85.1007 420.818C84.1809 423.374 83.6495 426.054 83.5243 428.768C83.4328 431.443 83.7455 434.117 84.4518 436.699C85.2143 439.256 86.3439 441.688 87.8054 443.92C89.2637 446.13 91.0668 448.093 93.1461 449.732C94.1658 450.547 95.2417 451.288 96.3659 451.951C97.5137 452.58 98.7035 453.13 99.9268 453.595C104.863 455.347 109.931 456.875 114.855 458.489L143.799 467.978L243.93 500.899L311.41 523.192L329.736 529.296L334.523 530.865L336.141 531.395L334.523 530.865L329.736 529.296L311.353 523.365L243.778 501.364L143.585 468.632L114.623 459.138C109.682 457.518 104.723 455.892 99.6434 454.227C98.3802 453.748 97.1503 453.186 95.962 452.543C94.7959 451.85 93.6797 451.076 92.6213 450.228C90.4676 448.537 88.6018 446.509 87.0963 444.221C83.9917 439.585 82.4561 434.076 82.715 428.503C82.85 425.704 83.3962 422.94 84.336 420.3C84.765 418.992 85.211 417.632 85.7834 416.351C86.3851 415.068 87.0779 413.829 87.8564 412.645C89.431 410.262 91.3739 408.144 93.6127 406.37C95.8893 404.62 98.4272 403.238 101.133 402.276C106.641 400.355 112.63 400.307 118.168 402.14L340.917 475.297L351.351 478.718C354.729 479.679 357.915 481.22 360.766 483.272C365.959 487.177 369.528 492.863 370.787 499.238C371.332 502.098 371.409 505.028 371.013 507.912L370.776 509.316C370.704 509.741 370.6 510.159 370.466 510.569C370.322 511.01 370.179 511.446 370.036 511.882C369.618 513.157 369.217 514.379 368.811 515.619C367.968 517.934 366.809 520.121 365.365 522.117C364.031 523.906 362.482 525.525 360.753 526.936C357.851 529.313 354.465 531.028 350.831 531.959C348.176 532.659 345.424 532.916 342.686 532.721L341.127 532.591L339.791 532.363C339.092 532.267 338.403 532.111 337.731 531.898Z" fill="#263238"/>
<path d="M332.421 542.685L97.2875 465.602C83.6414 461.128 68.9526 468.564 64.479 482.21L63.7057 484.569C59.2321 498.215 66.6679 512.904 80.3139 517.377L315.448 594.461C329.094 598.934 343.783 591.499 348.256 577.852L349.03 575.494C353.503 561.848 346.067 547.159 332.421 542.685Z" fill="#FFCC00"/>
<path d="M138.917 448.262C138.88 448.396 138.822 448.376 138.872 448.246C138.896 448.184 138.92 448.123 138.945 448.061C139.295 446.994 139.752 445.599 140.231 443.849C141.422 440.213 142.964 435.17 144.858 429.104C144.887 429.013 145.011 429.001 145.057 429.085C145.103 429.171 145.021 429.269 144.928 429.239L114.698 419.441C114.581 419.403 114.569 419.242 114.679 419.187C114.788 419.132 114.91 419.236 114.872 419.353L113.203 424.443C112.638 426.165 112.04 427.99 111.475 429.712C110.381 433.05 109.319 436.291 108.314 439.357C108.279 439.464 108.131 439.475 108.081 439.375C108.029 439.274 108.127 439.161 108.234 439.198L129.93 446.536L136.267 448.728L137.988 449.292L138.608 449.495C137.861 449.341 137.125 449.138 136.405 448.887L130.086 446.931L107.635 439.799L107.514 439.76C107.286 439.685 107.162 439.439 107.236 439.211C108.269 436.06 109.359 432.737 110.493 429.276C111.058 427.554 111.622 425.832 112.221 424.007L113.804 419.177C113.857 419.015 113.904 418.76 114.056 418.682C114.215 418.601 114.877 418.529 115.047 418.585L145.283 428.61C145.483 428.676 145.592 428.891 145.526 429.091C143.391 435.313 141.629 440.456 140.37 444.181C139.805 445.902 139.365 447.245 138.917 448.262Z" fill="#263238"/>
<path d="M139.254 430.944C140.191 430.545 140.497 431.297 139.55 431.67C136.088 433.225 131.293 435.277 125.981 437.518C125.767 437.608 125.528 437.618 125.308 437.546L125.112 437.482C125.026 437.454 124.951 437.396 124.903 437.318L124.753 437.078L124.47 436.604L123.915 435.678L122.834 433.856L120.789 430.382L117.379 424.497C117.361 424.469 117.343 424.441 117.326 424.412C116.816 423.6 117.447 423.217 117.927 424.047L121.502 429.834L123.599 433.268L124.703 435.079L125.269 436.027L125.535 436.495L125.691 436.718C125.716 436.759 125.677 436.809 125.631 436.794L125.495 436.75C125.405 436.72 125.4 436.593 125.488 436.556C130.842 434.329 135.674 432.417 139.254 430.944Z" fill="#263238"/>
<path d="M114.832 435.351C116.257 434.545 116.818 435.599 115.318 436.254C113.907 437.058 113.348 436.01 114.832 435.351Z" fill="#263238"/>
<path d="M135.595 441.872C136.321 443.309 135.285 443.749 134.732 442.237C134.022 440.821 135.046 440.386 135.595 441.872Z" fill="#263238"/>
<path d="M158.706 449.374C158.897 449.435 159.001 449.64 158.939 449.831C158.877 450.02 158.672 450.124 158.483 450.062L155.253 449.003C153.28 448.356 152.205 446.232 152.852 444.259L153.938 440.944C154.562 439.042 156.609 438.006 158.511 438.63L161.61 439.646C161.801 439.708 161.904 439.913 161.842 440.103C161.779 440.293 161.575 440.397 161.385 440.334L157.605 439.095C156.478 438.726 155.265 439.34 154.896 440.467C154.526 441.594 155.14 442.807 156.267 443.176L159.401 444.203C159.587 444.264 159.688 444.464 159.627 444.649C159.566 444.835 159.366 444.936 159.181 444.875L156.119 443.871C154.952 443.489 153.697 444.124 153.314 445.291C152.931 446.462 153.572 447.722 154.745 448.099L158.706 449.374Z" fill="#263238"/>
<path d="M175.509 450.647L174.152 454.788C174.085 454.993 173.865 455.104 173.66 455.037C173.456 454.97 173.344 454.75 173.411 454.546L174.752 450.456C175.316 448.735 174.714 447.488 173.216 446.997C172.83 446.852 172.417 446.791 172.005 446.82C171.593 446.849 171.193 446.967 170.831 447.165C170.469 447.363 170.154 447.637 169.908 447.969C169.661 448.3 169.49 448.681 169.405 449.085L168.177 452.83C168.11 453.034 167.89 453.146 167.685 453.079C167.481 453.012 167.369 452.791 167.436 452.587L168.777 448.498C169.342 446.776 168.739 445.53 167.241 445.039C166.855 444.893 166.442 444.832 166.03 444.861C165.619 444.89 165.218 445.008 164.856 445.206C164.494 445.405 164.179 445.679 163.933 446.01C163.687 446.341 163.515 446.722 163.43 447.126L162.202 450.871C162.135 451.075 161.915 451.187 161.711 451.12C161.506 451.053 161.395 450.833 161.462 450.628L163.759 443.62C163.823 443.425 164.033 443.319 164.228 443.383L164.259 443.393C164.437 443.452 164.534 443.643 164.475 443.82C164.364 444.162 164.905 444.549 165.243 444.427C165.38 444.377 165.521 444.337 165.665 444.307C166.08 444.218 166.507 444.213 166.921 444.289C167.345 444.367 167.764 444.498 168.151 444.689C168.529 444.876 168.865 445.145 169.131 445.48C169.563 446.023 170.715 446.467 171.387 446.294C171.422 446.285 171.457 446.276 171.492 446.268C172.156 446.119 172.849 446.171 173.483 446.417C173.917 446.526 174.323 446.729 174.67 447.012C175.017 447.295 175.297 447.652 175.491 448.056C175.685 448.46 175.787 448.901 175.79 449.349C175.793 449.797 175.697 450.241 175.509 450.647Z" fill="#263238"/>
<path d="M184.248 453.074L182.755 457.628C182.692 457.823 182.482 457.929 182.287 457.865L182.237 457.849C182.07 457.794 181.978 457.614 182.033 457.446C182.134 457.14 181.715 456.826 181.413 456.936C181.224 457.004 181.028 457.055 180.829 457.086C180.254 457.177 179.665 457.108 179.127 456.887C177.406 456.322 176.643 455.1 177.078 453.774C177.512 452.448 178.524 451.864 180.659 452.564L182.691 453.23C183.033 453.343 183.401 453.156 183.514 452.814C183.646 452.519 183.709 452.199 183.698 451.876C183.687 451.554 183.603 451.238 183.452 450.953C183.301 450.669 183.086 450.422 182.826 450.232C182.618 450.081 182.384 449.969 182.137 449.902C182.012 449.867 181.885 449.837 181.759 449.8C180.958 449.569 180.108 449.578 179.313 449.823C179.122 449.882 178.913 449.781 178.858 449.589C178.811 449.423 178.897 449.247 179.061 449.193C179.994 448.89 180.996 448.871 181.941 449.137C182.123 449.188 182.307 449.233 182.49 449.285C182.802 449.373 183.096 449.516 183.36 449.707C183.7 449.954 183.979 450.276 184.176 450.648C184.372 451.02 184.481 451.432 184.494 451.852C184.506 452.273 184.422 452.691 184.248 453.074ZM182.502 455.622C182.605 455.511 182.674 455.375 182.721 455.231C182.944 454.552 182.574 453.821 181.895 453.599L180.49 453.138C178.889 452.613 178.117 453.104 177.83 453.982C177.542 454.86 178.068 455.872 179.428 456.318C179.987 456.539 180.603 456.574 181.184 456.418C181.69 456.281 182.147 456.004 182.502 455.622Z" fill="#263238"/>
<path d="M188.788 448.708C188.814 448.629 188.855 448.555 188.909 448.492C188.964 448.429 189.03 448.377 189.104 448.34C189.178 448.302 189.259 448.279 189.342 448.273C189.425 448.267 189.509 448.277 189.588 448.303C189.707 448.342 189.812 448.415 189.89 448.514C189.967 448.613 190.013 448.732 190.023 448.857C190.032 448.982 190.005 449.107 189.943 449.217C189.881 449.326 189.789 449.415 189.677 449.471C189.565 449.528 189.439 449.55 189.314 449.535C189.19 449.52 189.072 449.468 188.977 449.386C188.882 449.305 188.813 449.197 188.78 449.076C188.746 448.955 188.749 448.827 188.788 448.708ZM188.075 451.651C188.146 451.426 188.387 451.303 188.611 451.377C188.833 451.45 188.955 451.689 188.882 451.911L186.601 458.868C186.534 459.073 186.313 459.185 186.107 459.118C185.903 459.051 185.791 458.832 185.856 458.627L188.075 451.651Z" fill="#263238"/>
<path d="M193.007 449.624C193.074 449.419 193.294 449.308 193.498 449.375C193.703 449.442 193.814 449.662 193.747 449.866L190.388 460.111C190.321 460.316 190.101 460.427 189.897 460.36C189.692 460.293 189.581 460.073 189.648 459.868L193.007 449.624Z" fill="#263238"/>
<path d="M147.631 518.457C147.48 518.416 147.361 518.301 147.315 518.152L146.238 514.71C146.017 514 145.434 513.475 144.745 513.195L143.316 512.727C142.26 512.381 141.124 512.956 140.778 514.011L140.278 515.535C140.208 515.749 139.978 515.866 139.764 515.796C139.55 515.725 139.433 515.495 139.504 515.281L141.821 508.213C142.578 505.902 145.066 504.643 147.376 505.401C150.304 506.36 151.597 508.405 150.784 510.885C150.551 511.729 150.03 512.466 149.312 512.969C149.247 513.014 149.181 513.058 149.113 513.099C148.148 513.687 147.221 514.815 147.561 515.893L148.187 517.878C148.296 518.223 147.98 518.552 147.631 518.457ZM144.959 512.541C147.456 513.359 149.183 512.629 149.838 510.631C150.492 508.634 149.539 507.006 147.042 506.187L146.879 506.134C145.124 505.558 143.236 506.515 142.66 508.269C142.085 510.023 143.041 511.912 144.796 512.487L144.959 512.541Z" fill="white"/>
<path d="M159.789 517.705C159.764 517.763 159.686 517.826 159.626 517.807L153.66 515.851C152.878 515.594 152.002 516.036 152.077 516.856C152.122 517.352 152.27 517.833 152.51 518.269C152.749 518.706 153.077 519.088 153.471 519.393C153.865 519.697 154.318 519.917 154.801 520.039C155.32 520.229 155.875 520.302 156.426 520.251C156.831 520.214 157.227 520.111 157.598 519.947C157.809 519.854 158.065 519.936 158.156 520.149C158.231 520.325 158.164 520.531 157.993 520.616C157.51 520.854 156.987 521.001 156.449 521.049C155.799 521.107 155.146 521.018 154.535 520.791C153.934 520.626 153.374 520.338 152.891 519.945C152.407 519.553 152.011 519.064 151.726 518.51C151.442 517.956 151.275 517.348 151.238 516.727C151.201 516.105 151.293 515.482 151.509 514.898C151.659 514.317 151.926 513.774 152.294 513.3C152.662 512.827 153.124 512.435 153.65 512.147C154.176 511.859 154.755 511.682 155.352 511.627C155.949 511.572 156.551 511.64 157.121 511.826C157.691 512.013 158.216 512.315 158.665 512.713C159.113 513.111 159.475 513.596 159.729 514.14C159.982 514.683 160.122 515.273 160.138 515.872C160.154 516.431 160.062 516.987 159.869 517.51C159.846 517.572 159.815 517.645 159.789 517.705ZM154.229 512.697C152.869 513.386 153.651 515.123 155.1 515.598L156.534 516.068C157.983 516.543 159.642 515.606 158.953 514.246C158.532 513.414 157.798 512.783 156.912 512.493C156.026 512.203 155.061 512.276 154.229 512.697Z" fill="white"/>
<path d="M160.252 521.659C160.129 521.501 160.156 521.276 160.304 521.14C160.485 520.976 160.768 521.009 160.923 521.197C161.579 521.992 162.449 522.586 163.434 522.907C165.277 523.511 166.226 523.116 166.553 522.118C167.383 519.587 160.983 519.567 162.106 516.14C162.535 514.832 163.987 514.126 166.191 514.848C167.133 515.138 167.981 515.667 168.654 516.382C168.802 516.54 168.781 516.787 168.618 516.93C168.443 517.085 168.175 517.056 168.017 516.884C167.455 516.27 166.737 515.814 165.936 515.566C164.215 515.001 163.26 515.47 162.955 516.4C162.097 519.017 168.469 519.066 167.38 522.389C166.917 523.801 165.378 524.364 163.157 523.636C162.003 523.297 160.988 522.604 160.252 521.659Z" fill="white"/>
<path d="M177.779 523.472C177.826 523.329 177.561 523.686 177.418 523.639L171.602 521.733C170.82 521.476 169.944 521.918 170.019 522.738C170.065 523.234 170.212 523.715 170.452 524.151C170.692 524.588 171.019 524.97 171.413 525.275C171.807 525.579 172.26 525.799 172.743 525.92C173.262 526.111 173.817 526.184 174.368 526.133C174.774 526.096 175.17 525.993 175.541 525.829C175.751 525.735 176.007 525.818 176.098 526.03C176.173 526.207 176.106 526.413 175.934 526.497C175.451 526.733 174.928 526.879 174.39 526.927C173.742 526.985 173.088 526.898 172.477 526.672C171.876 526.507 171.315 526.219 170.831 525.826C170.346 525.434 169.948 524.945 169.662 524.39C169.376 523.836 169.209 523.229 169.169 522.606C169.13 521.984 169.22 521.36 169.434 520.774C169.587 520.195 169.858 519.653 170.229 519.182C170.6 518.711 171.064 518.322 171.591 518.037C172.119 517.753 172.699 517.579 173.296 517.528C173.893 517.476 174.495 517.548 175.063 517.738C175.631 517.917 176.155 518.212 176.604 518.604C177.052 518.995 177.416 519.475 177.67 520.013C177.925 520.551 178.066 521.136 178.085 521.731C178.104 522.326 178 522.919 177.779 523.472ZM172.198 518.761C170.906 519.358 171.57 520.997 172.922 521.441L174.579 521.984C175.931 522.427 177.437 521.499 176.749 520.253C176.32 519.475 175.611 518.889 174.767 518.612C173.923 518.335 173.005 518.388 172.198 518.761Z" fill="white"/>
<path d="M183.388 529.342C183.406 529.489 183.323 529.632 183.181 529.674C182.631 529.838 182.042 529.83 181.494 529.647C181.164 529.575 180.854 529.43 180.587 529.223C180.32 529.016 180.103 528.752 179.952 528.45C179.8 528.148 179.718 527.816 179.712 527.478C179.705 527.14 179.774 526.805 179.914 526.498L181.514 521.616C181.659 521.174 181.418 520.698 180.976 520.553L180.537 520.409C180.337 520.344 180.228 520.129 180.294 519.929C180.359 519.729 180.574 519.621 180.774 519.686L181.213 519.83C181.655 519.975 182.131 519.734 182.276 519.292L182.499 518.612C182.574 518.383 182.82 518.259 183.048 518.334C183.276 518.409 183.4 518.654 183.326 518.883L183.151 519.416C182.979 519.939 183.264 520.502 183.787 520.674L185.251 521.154C185.45 521.219 185.559 521.434 185.494 521.634C185.428 521.833 185.213 521.942 185.014 521.877L183.989 521.541C183.224 521.29 182.4 521.707 182.149 522.473L180.763 526.7C180.396 527.819 180.749 528.602 181.817 528.952C182.174 529.081 182.557 529.11 182.925 529.039C183.137 528.998 183.361 529.128 183.388 529.342Z" fill="white"/>
<path d="M201.545 527.582C200.744 530.027 198.542 530.926 195.563 529.95L194.169 529.493C193.113 529.147 191.977 529.722 191.631 530.777L191.145 532.258C191.067 532.496 190.811 532.625 190.574 532.547C190.336 532.47 190.206 532.214 190.284 531.976L192.61 524.882C193.371 522.562 195.868 521.297 198.189 522.058C201.081 523.006 202.358 525.103 201.545 527.582ZM200.684 527.3C201.35 525.268 200.386 523.674 197.889 522.856L197.751 522.811C196.001 522.237 194.118 523.191 193.544 524.94C192.971 526.69 193.924 528.574 195.674 529.147L195.846 529.204C198.308 530.011 200.029 529.297 200.684 527.3Z" fill="white"/>
<path d="M209.638 532.677L207.959 537.799C207.886 538.022 207.645 538.144 207.422 538.071L207.352 538.048C207.167 537.987 207.066 537.788 207.127 537.603C207.238 537.263 206.767 536.913 206.431 537.036C206.22 537.114 206.001 537.171 205.777 537.207C205.13 537.312 204.466 537.233 203.861 536.98C201.915 536.342 201.054 534.954 201.54 533.473C202.025 531.992 203.168 531.299 205.596 532.095L207.886 532.846C208.266 532.97 208.676 532.763 208.8 532.383C208.951 532.05 209.024 531.688 209.013 531.323C209.002 530.959 208.908 530.601 208.737 530.279C208.567 529.956 208.325 529.677 208.03 529.462C207.796 529.291 207.532 529.165 207.254 529.088C207.11 529.049 206.966 529.014 206.823 528.972C205.917 528.71 204.954 528.724 204.058 529.008C203.843 529.076 203.606 528.964 203.543 528.748C203.488 528.56 203.586 528.36 203.773 528.3C204.814 527.967 205.93 527.943 206.985 528.23C207.19 528.285 207.397 528.334 207.602 528.388C207.96 528.484 208.298 528.643 208.601 528.858C208.991 529.136 209.312 529.499 209.539 529.92C209.766 530.341 209.893 530.808 209.91 531.287C209.927 531.765 209.834 532.24 209.638 532.677ZM207.649 535.561C207.77 535.434 207.852 535.276 207.906 535.11C208.157 534.345 207.74 533.523 206.976 533.272L205.398 532.755C203.59 532.162 202.705 532.711 202.389 533.675C202.073 534.639 202.669 535.788 204.218 536.296C204.84 536.549 205.526 536.595 206.176 536.427C206.74 536.28 207.25 535.98 207.649 535.561Z" fill="white"/>
<path d="M210.493 538.129C210.37 537.971 210.398 537.747 210.545 537.613C210.725 537.448 211.01 537.482 211.164 537.672C211.815 538.47 212.688 539.065 213.677 539.378C215.519 539.982 216.451 539.582 216.778 538.583C217.608 536.052 211.225 536.038 212.348 532.611C212.777 531.303 214.229 530.596 216.433 531.319C217.375 531.606 218.222 532.137 218.889 532.855C219.032 533.01 219.013 533.25 218.858 533.393C218.685 533.551 218.415 533.525 218.256 533.353C217.693 532.741 216.977 532.286 216.179 532.036C214.457 531.472 213.485 531.935 213.18 532.865C212.322 535.482 218.711 535.536 217.622 538.86C217.159 540.271 215.621 540.835 213.399 540.107C212.243 539.77 211.227 539.076 210.493 538.129Z" fill="white"/>
<path d="M218.501 540.755C218.378 540.597 218.405 540.372 218.553 540.236C218.734 540.072 219.017 540.105 219.172 540.293C219.828 541.088 220.698 541.682 221.683 542.003C223.526 542.607 224.475 542.212 224.802 541.214C225.632 538.683 219.232 538.663 220.355 535.236C220.784 533.928 222.236 533.222 224.44 533.944C225.382 534.234 226.23 534.764 226.903 535.478C227.051 535.636 227.03 535.883 226.867 536.026C226.692 536.181 226.424 536.152 226.266 535.98C225.704 535.366 224.986 534.91 224.185 534.662C222.464 534.097 221.509 534.566 221.204 535.496C220.346 538.113 226.718 538.162 225.629 541.485C225.166 542.897 223.628 543.46 221.406 542.732C220.252 542.393 219.237 541.7 218.501 540.755Z" fill="white"/>
<path d="M241.823 539.7C242.076 539.783 242.168 540.094 242 540.301L236.448 547.175C236.29 547.371 236.027 547.448 235.787 547.37C235.55 547.292 235.384 547.076 235.371 546.826L235.298 545.446C235.172 543.059 232.179 542.071 230.657 543.914L229.757 545.005C229.604 545.189 229.355 545.261 229.128 545.187C228.898 545.111 228.739 544.902 228.728 544.661L228.323 535.829C228.31 535.557 228.574 535.356 228.832 535.441C228.987 535.492 229.093 535.633 229.1 535.795L229.163 537.341C229.262 539.753 232.293 540.76 233.815 538.886L234.744 537.744C234.884 537.57 235.118 537.502 235.33 537.571C235.543 537.641 235.691 537.835 235.701 538.058L235.77 539.512C235.885 541.924 238.922 542.913 240.435 541.032L241.407 539.823C241.506 539.699 241.672 539.65 241.823 539.7Z" fill="white"/>
<path d="M241.659 544.471C241.955 543.616 242.496 542.868 243.216 542.32C243.935 541.772 244.801 541.449 245.703 541.392C246.606 541.335 247.505 541.546 248.288 541.999C249.071 542.452 249.702 543.126 250.103 543.937C250.503 544.748 250.655 545.659 250.539 546.556C250.423 547.453 250.044 548.296 249.45 548.978C248.856 549.66 248.074 550.151 247.202 550.389C246.329 550.628 245.406 550.603 244.548 550.318C243.96 550.145 243.415 549.852 242.946 549.457C242.477 549.063 242.095 548.576 241.824 548.026C241.553 547.477 241.398 546.878 241.37 546.266C241.341 545.654 241.44 545.043 241.659 544.471ZM249.511 547.045C249.687 546.36 249.659 545.64 249.431 544.971C249.203 544.303 248.784 543.715 248.226 543.282C247.669 542.848 246.997 542.587 246.293 542.53C245.589 542.473 244.883 542.623 244.263 542.962C243.643 543.3 243.136 543.813 242.804 544.436C242.471 545.059 242.328 545.766 242.392 546.47C242.456 547.173 242.724 547.843 243.163 548.396C243.603 548.949 244.194 549.362 244.865 549.583C245.336 549.739 245.834 549.796 246.329 549.751C246.823 549.706 247.303 549.56 247.739 549.322C248.174 549.084 248.556 548.759 248.861 548.367C249.166 547.976 249.387 547.525 249.511 547.045Z" fill="white"/>
<path d="M258.133 544.977C258.353 545.042 258.46 545.283 258.389 545.502L258.318 545.717C258.28 545.832 258.158 545.894 258.043 545.856C256.115 545.224 254.538 546.137 253.832 548.29L252.483 552.405C252.409 552.633 252.163 552.757 251.935 552.683C251.706 552.608 251.582 552.362 251.657 552.134L254.248 544.231C254.319 544.012 254.555 543.893 254.774 543.964L254.842 543.987C255.023 544.046 255.121 544.241 255.062 544.422C254.945 544.778 255.55 545.2 255.899 545.065C256.057 545.005 256.219 544.956 256.385 544.919C256.965 544.788 257.567 544.81 258.133 544.977Z" fill="white"/>
<path d="M269.239 544.626C269.468 544.701 269.592 544.947 269.517 545.175L265.727 556.737C265.653 556.96 265.413 557.082 265.189 557.009L265.181 557.006C264.962 556.934 264.843 556.699 264.915 556.48C265.051 556.064 264.414 555.607 264.003 555.76C263.828 555.825 263.649 555.879 263.465 555.92C262.711 556.088 261.925 556.038 261.198 555.777C260.097 555.338 259.205 554.497 258.703 553.423C258.201 552.35 258.128 551.126 258.497 550C258.866 548.874 259.65 547.931 260.69 547.364C261.73 546.796 262.947 546.646 264.094 546.944C264.827 547.163 265.483 547.584 265.99 548.157C266.378 548.597 267.485 548.58 267.668 548.023L268.691 544.904C268.765 544.676 269.011 544.551 269.239 544.626ZM266.196 552.514C266.372 551.83 266.344 551.11 266.116 550.441C265.887 549.773 265.469 549.185 264.911 548.752C264.354 548.318 263.682 548.056 262.978 548C262.273 547.943 261.568 548.093 260.948 548.432C260.328 548.77 259.821 549.283 259.488 549.906C259.156 550.529 259.013 551.236 259.077 551.94C259.141 552.643 259.409 553.313 259.848 553.866C260.287 554.419 260.879 554.832 261.55 555.053C262.021 555.209 262.519 555.266 263.014 555.221C263.508 555.176 263.988 555.03 264.424 554.792C264.859 554.554 265.241 554.229 265.546 553.837C265.851 553.445 266.072 552.995 266.196 552.514Z" fill="white"/>
<path d="M523.86 144.627C523.781 144.868 444.113 118.979 345.934 86.7931C247.755 54.6072 168.222 28.3053 168.301 28.0643C168.381 27.8232 248.031 53.7062 346.228 85.8977C444.424 118.089 523.94 144.386 523.86 144.627Z" fill="#263238"/>
<path d="M193.005 20.5268C192.722 21.3797 192.192 22.1295 191.483 22.6816C190.774 23.2337 189.917 23.5633 189.021 23.6288C188.124 23.6943 187.228 23.4927 186.447 23.0495C185.665 22.6064 185.032 21.9415 184.627 21.1388C184.223 20.3361 184.066 19.4317 184.175 18.5396C184.284 17.6475 184.655 16.8078 185.241 16.1265C185.828 15.4452 186.603 14.9528 187.468 14.7115C188.334 14.4703 189.252 14.491 190.106 14.7709C190.675 14.9575 191.202 15.2545 191.655 15.645C192.109 16.0356 192.482 16.5119 192.751 17.0467C193.02 17.5815 193.182 18.1642 193.225 18.7614C193.269 19.3586 193.194 19.9585 193.005 20.5268Z" fill="#263238"/>
<path d="M205.506 24.6249C205.223 25.4778 204.693 26.2277 203.984 26.7798C203.275 27.3318 202.418 27.6614 201.522 27.7269C200.625 27.7924 199.729 27.5908 198.948 27.1477C198.166 26.7045 197.533 26.0396 197.128 25.237C196.724 24.4343 196.566 23.5298 196.676 22.6377C196.785 21.7456 197.156 20.9059 197.742 20.2246C198.329 19.5433 199.104 19.051 199.969 18.8097C200.835 18.5684 201.753 18.5891 202.607 18.8691C203.176 19.0556 203.702 19.3526 204.156 19.7432C204.61 20.1337 204.983 20.61 205.252 21.1448C205.521 21.6796 205.683 22.2623 205.726 22.8595C205.77 23.4567 205.695 24.0567 205.506 24.6249Z" fill="#263238"/>
<path d="M217.938 28.7002C217.654 29.5553 217.122 30.3067 216.41 30.8591C215.698 31.4115 214.838 31.74 213.939 31.8029C213.041 31.8658 212.143 31.6604 211.361 31.2125C210.579 30.7647 209.948 30.0947 209.548 29.2875C209.147 28.4804 208.995 27.5724 209.112 26.6789C209.228 25.7854 209.607 24.9465 210.201 24.2688C210.795 23.591 211.576 23.105 212.447 22.8722C213.317 22.6394 214.237 22.6704 215.09 22.9613C216.226 23.3488 217.163 24.1693 217.696 25.2443C218.229 26.3192 218.316 27.5615 217.938 28.7002Z" fill="#263238"/>
<path d="M356.614 656.944C357.821 653.26 429.18 435.009 532.996 117.515C533.032 117.407 533.181 117.393 533.232 117.494C533.283 117.595 533.186 117.708 533.079 117.672L177.629 1.14589C177.512 1.10759 177.5 0.947179 177.61 0.891655C177.719 0.836131 177.841 0.941707 177.803 1.05852C111.125 204.45 49.6506 391.971 0.990208 540.055C0.960693 540.145 0.838015 540.152 0.795331 540.068C0.752611 539.983 0.833321 539.89 0.923172 539.919L356.659 656.921L0.448033 540.545C0.248343 540.479 0.139529 540.264 0.204992 540.065C48.7999 391.832 110.344 204.1 177.011 0.447674C177.092 0.200431 177.359 0.0657068 177.606 0.14676L177.64 0.15805L533.699 116.884C533.927 116.959 534.051 117.205 533.976 117.433C429.568 434.987 357.816 653.276 356.614 656.944Z" fill="#263238"/>
</svg>