<svg width="16" height="14" viewBox="0 0 16 14" fill="none" xmlns="http://www.w3.org/2000/svg">
<path d="M7.86159 0.22168C3.89791 0.22168 0.654907 3.16513 0.654907 6.76268C0.654907 10.3602 3.89791 13.3037 7.86159 13.3037C11.8253 13.3037 15.0683 10.3602 15.0683 6.76268C15.0683 3.16513 11.8253 0.22168 7.86159 0.22168ZM7.86159 11.9955C4.68344 11.9955 2.09624 9.64727 2.09624 6.76268C2.09624 3.8781 4.68344 1.52988 7.86159 1.52988C11.0397 1.52988 13.6269 3.8781 13.6269 6.76268C13.6269 9.64727 11.0397 11.9955 7.86159 11.9955ZM11.1695 3.87156L6.42025 8.18208L4.55372 6.4945L3.53758 7.41679L6.42025 10.0332L12.1856 4.80038L11.1695 3.87156Z" fill="#421196"/>
</svg>
