<svg width="49" height="22" viewBox="0 0 49 22" fill="none" xmlns="http://www.w3.org/2000/svg">
<g clip-path="url(#clip0_1014_704)">
<path d="M19.1045 0.768947L12.8207 15.4981H8.7212L5.62887 3.74284C5.44139 3.02055 5.27847 2.75474 4.70796 2.44932C3.77543 1.95158 2.23545 1.48608 0.881836 1.1965L0.97314 0.768947H7.57325C8.41316 0.768947 9.16946 1.31845 9.36182 2.26989L10.9957 10.7939L15.0296 0.768947H19.1045ZM24.6465 0.768947L21.44 15.4981H17.5613L20.7682 0.768947H24.6465ZM35.1672 10.6891C35.1833 6.80239 29.6976 6.58668 29.7334 4.85013C29.7465 4.32218 30.2583 3.76016 31.3787 3.61647C31.9337 3.54592 33.4669 3.48974 35.2035 4.27595L35.883 1.15063C34.9499 0.819053 33.7491 0.5 32.2554 0.5C28.4214 0.5 25.7245 2.50089 25.7029 5.36832C25.6778 7.48932 27.6293 8.67139 29.0969 9.37784C30.6086 10.0992 31.1155 10.5629 31.1086 11.2076C31.0977 12.1959 29.9012 12.6334 28.7889 12.6496C26.8383 12.68 25.7076 12.1316 24.8056 11.7188L24.1016 14.9476C25.009 15.3562 26.6814 15.7112 28.4135 15.7292C32.4894 15.7292 35.1552 13.7512 35.1672 10.6891ZM45.2912 15.4981H48.8771L45.7443 0.768947H42.4358C41.6897 0.768947 41.0625 1.19447 40.7843 1.84861L34.9649 15.4981H39.0375L39.8454 13.2978H44.8212L45.2912 15.4981ZM40.9622 10.2796L43.0043 4.74826L44.1774 10.2796H40.962H40.9622ZM29.6102 19.5523H28.0342V20.9934H29.7969V21.4267H27.5033V17.4289H29.7066V17.8622H28.0342V19.1253H29.61V19.5527L29.6102 19.5523ZM30.6112 17.2154H31.1421V21.4265H30.6112V17.2154ZM32.4819 20.086C32.4939 20.7921 32.9468 21.0826 33.4838 21.0826C33.8644 21.0826 34.0997 21.0174 34.2931 20.9345L34.3895 21.3082C34.2024 21.3911 33.8765 21.4919 33.4114 21.4919C32.5122 21.4919 31.9751 20.9048 31.9751 20.0387C31.9751 19.1729 32.4939 18.4964 33.3452 18.4964C34.3051 18.4964 34.5526 19.3153 34.5526 19.843C34.5526 19.9497 34.5464 20.0267 34.5342 20.0862L32.4819 20.086ZM34.0393 19.7124C34.0455 19.3864 33.9005 18.8702 33.3029 18.8702C32.7595 18.8702 32.5301 19.3506 32.4877 19.7124H34.0393ZM37.4428 21.3257C37.3041 21.3911 36.9961 21.4921 36.6038 21.4921C35.7225 21.4921 35.149 20.9048 35.149 20.0269C35.149 19.143 35.7645 18.4966 36.7184 18.4966C37.0322 18.4966 37.3099 18.5734 37.4548 18.6508L37.3345 19.0482C37.2072 18.9829 37.0081 18.9115 36.7184 18.9115C36.0482 18.9115 35.6863 19.4039 35.6863 19.9974C35.6863 20.6615 36.1209 21.0708 36.7004 21.0708C37.0022 21.0708 37.2014 20.9997 37.3523 20.9345L37.4428 21.3257ZM38.9329 17.8677V18.5558H39.6934V18.9529H38.9329V20.5012C38.9329 20.8575 39.0357 21.0588 39.3313 21.0588C39.4761 21.0588 39.5608 21.0472 39.6394 21.0231L39.6635 21.421C39.5608 21.4563 39.3979 21.4919 39.1926 21.4919C38.9449 21.4919 38.7456 21.4088 38.6191 21.2727C38.4742 21.1122 38.4138 20.8575 38.4138 20.5193V18.9529H37.9608V18.5558H38.4138V18.0221L38.9331 17.8679L38.9329 17.8677ZM40.4352 19.4516C40.4352 19.1134 40.4288 18.8229 40.411 18.5558H40.876L40.9004 19.125H40.918C41.0511 18.7398 41.3768 18.4964 41.7328 18.4964C41.7873 18.4964 41.8297 18.5025 41.8781 18.5082V19.0008C41.8237 18.9887 41.7695 18.9887 41.6966 18.9887C41.3228 18.9887 41.0567 19.2615 40.9845 19.6533C40.9721 19.7338 40.966 19.8151 40.9664 19.8964V21.4269H40.4352V19.4516ZM45.1431 19.9674C45.1431 21.0292 44.3883 21.4919 43.6882 21.4919C42.9032 21.4919 42.2877 20.9223 42.2877 20.0151C42.2877 19.0599 42.9336 18.4966 43.7366 18.4966C44.5756 18.4966 45.1431 19.0951 45.1431 19.9674ZM42.8309 19.9972C42.8309 20.6259 43.1931 21.1006 43.7122 21.1006C44.2195 21.1006 44.5996 20.6316 44.5996 19.9852C44.5996 19.4989 44.3521 18.8877 43.7242 18.8877C43.1027 18.8877 42.8309 19.4575 42.8309 19.9972ZM45.9571 19.3328C45.9571 19.0305 45.9507 18.793 45.9327 18.5559H46.4037L46.4339 19.0305H46.4459C46.5908 18.7634 46.9288 18.4966 47.4118 18.4966C47.816 18.4966 48.4441 18.7339 48.4441 19.7181V21.4267H47.9129V19.7717C47.9129 19.3094 47.7378 18.9234 47.2369 18.9234C46.8927 18.9234 46.6208 19.1668 46.5246 19.4573C46.5003 19.5227 46.4883 19.6115 46.4883 19.7006V21.4267H45.9571V19.3328Z" fill="#1A1F71"/>
</g>
<defs>
<clipPath id="clip0_1014_704">
<rect width="48" height="21" fill="white" transform="translate(0.879883 0.5)"/>
</clipPath>
</defs>
</svg>