<svg width="39" height="34" viewBox="0 0 39 34" fill="none" xmlns="http://www.w3.org/2000/svg">
<path d="M36.048 16.7676L20.3604 3.10117C20.2475 3.0025 20.1133 2.92423 19.9656 2.87082C19.8179 2.81741 19.6596 2.78992 19.4997 2.78992C19.3398 2.78992 19.1815 2.81741 19.0338 2.87082C18.8861 2.92423 18.7519 3.0025 18.639 3.10117L2.95137 16.7676C2.49434 17.166 2.23535 17.7072 2.23535 18.2717C2.23535 19.4437 3.32842 20.3967 4.67285 20.3967H6.32578V30.1484C6.32578 30.7361 6.87041 31.2109 7.54453 31.2109H17.0622V23.7734H21.3278V31.2109H31.4549C32.129 31.2109 32.6736 30.7361 32.6736 30.1484V20.3967H34.3266C34.974 20.3967 35.5948 20.1742 36.0519 19.7725C37.0002 18.9424 37.0002 17.5977 36.048 16.7676Z" fill="#FFCC00"/>
</svg>